<svg xmlns="http://www.w3.org/2000/svg" viewBox="0 0 323.33 457.78">
  <defs>
    <style>
      .aaac00d0-0095-4bc2-80fa-adddfc7fa2a2 {
        fill: #ccc;
      }
    </style>
  </defs>
  <g id="a59be59c-617b-4473-bcce-9bf8cabaeab2" data-name="Layer 2">
    <g id="afa4d68b-e8ec-43b4-a12f-b2af34e36e0d" data-name="Layer 1">
      <g>
        <rect class="aaac00d0-0095-4bc2-80fa-adddfc7fa2a2" x="100.44" y="234.25" width="51.33" height="20.1" rx="2.08" transform="translate(252.2 488.6) rotate(180)"/>
        <rect class="aaac00d0-0095-4bc2-80fa-adddfc7fa2a2" x="12.76" y="299.58" width="51.33" height="20.1" rx="2.08" transform="translate(76.86 619.25) rotate(180)"/>
        <rect class="aaac00d0-0095-4bc2-80fa-adddfc7fa2a2" x="74.77" y="260.07" width="51.33" height="20.1" rx="2.08" transform="translate(200.87 540.25) rotate(180)"/>
        <rect class="aaac00d0-0095-4bc2-80fa-adddfc7fa2a2" x="19.04" y="260.07" width="51.33" height="20.1" rx="2.08" transform="translate(89.41 540.25) rotate(180)"/>
        <rect class="aaac00d0-0095-4bc2-80fa-adddfc7fa2a2" x="128.89" y="338.19" width="51.33" height="20.1" rx="2.08"/>
        <rect class="aaac00d0-0095-4bc2-80fa-adddfc7fa2a2" x="250.36" y="203.9" width="50.12" height="19.63" rx="2.03" transform="translate(550.83 427.43) rotate(180)"/>
        <rect class="aaac00d0-0095-4bc2-80fa-adddfc7fa2a2" y="172.13" width="50.12" height="19.63" rx="2.03" transform="translate(50.12 363.88) rotate(180)"/>
        <rect class="aaac00d0-0095-4bc2-80fa-adddfc7fa2a2" x="234.25" y="262.47" width="51.33" height="20.1" rx="2.08"/>
        <rect class="aaac00d0-0095-4bc2-80fa-adddfc7fa2a2" x="219.62" y="437.68" width="51.33" height="20.1" rx="2.08"/>
        <rect class="aaac00d0-0095-4bc2-80fa-adddfc7fa2a2" x="262.18" y="56.51" width="50.12" height="19.63" rx="2.03" transform="translate(574.48 132.64) rotate(180)"/>
        <rect class="aaac00d0-0095-4bc2-80fa-adddfc7fa2a2" x="9.83" y="72.07" width="50.12" height="19.63" rx="2.03" transform="translate(69.78 163.77) rotate(180)"/>
        <rect class="aaac00d0-0095-4bc2-80fa-adddfc7fa2a2" x="52.53" width="50.12" height="19.63" rx="2.03" transform="translate(155.17 19.63) rotate(180)"/>
        <rect class="aaac00d0-0095-4bc2-80fa-adddfc7fa2a2" x="136.3" y="23.38" width="50.12" height="19.63" rx="2.03" transform="translate(322.71 66.39) rotate(180)"/>
        <rect class="aaac00d0-0095-4bc2-80fa-adddfc7fa2a2" x="81.89" y="23.38" width="50.12" height="19.63" rx="2.03" transform="translate(213.89 66.39) rotate(180)"/>
        <rect class="aaac00d0-0095-4bc2-80fa-adddfc7fa2a2" x="63.56" y="71.55" width="50.12" height="19.63" rx="2.03"/>
        <rect class="aaac00d0-0095-4bc2-80fa-adddfc7fa2a2" x="255.02" y="379.88" width="51.33" height="20.1" rx="2.08" transform="translate(561.36 779.85) rotate(-180)"/>
        <rect class="aaac00d0-0095-4bc2-80fa-adddfc7fa2a2" x="273.22" y="129.89" width="50.12" height="19.63" rx="2.03"/>
        <rect class="aaac00d0-0095-4bc2-80fa-adddfc7fa2a2" x="189.44" y="104.68" width="50.12" height="19.63" rx="2.03"/>
        <rect class="aaac00d0-0095-4bc2-80fa-adddfc7fa2a2" x="243.86" y="104.68" width="50.12" height="19.63" rx="2.03"/>
        <rect class="aaac00d0-0095-4bc2-80fa-adddfc7fa2a2" x="3.62" y="362.9" width="51.33" height="20.1" rx="2.08" transform="translate(58.58 745.89) rotate(180)"/>
        <rect class="aaac00d0-0095-4bc2-80fa-adddfc7fa2a2" x="46.35" y="437.65" width="51.33" height="20.1" rx="2.08" transform="translate(144.04 895.41) rotate(180)"/>
        <rect class="aaac00d0-0095-4bc2-80fa-adddfc7fa2a2" x="132.15" y="412.77" width="51.33" height="20.1" rx="2.08" transform="translate(315.64 845.64) rotate(180)"/>
        <rect class="aaac00d0-0095-4bc2-80fa-adddfc7fa2a2" x="76.42" y="411.83" width="51.33" height="20.1" rx="2.08" transform="translate(204.17 843.76) rotate(180)"/>
      </g>
    </g>
  </g>
</svg>
