<svg xmlns="http://www.w3.org/2000/svg" xmlns:xlink="http://www.w3.org/1999/xlink" viewBox="0 0 916.55 782.86"><defs><style>.cls-1{fill:url(#linear-gradient);}.cls-2{fill:#41ead4;fill-rule:evenodd;}</style><linearGradient id="linear-gradient" x1="109.77" y1="391.43" x2="818.98" y2="391.43" gradientUnits="userSpaceOnUse"><stop offset="0" stop-color="#390099"/><stop offset="1" stop-color="#ff0054"/></linearGradient></defs><g id="Layer_2" data-name="Layer 2"><g id="Layer_2-2" data-name="Layer 2"><path class="cls-1" d="M420.26,462.24a20.17,20.17,0,1,1-20.17-20.17A20.17,20.17,0,0,1,420.26,462.24ZM129.94,742.52a20.17,20.17,0,1,0,20.17,20.17A20.17,20.17,0,0,0,129.94,742.52Zm270.15,0a20.17,20.17,0,1,0,20.17,20.17A20.17,20.17,0,0,0,400.09,742.52ZM310,642.37a20.17,20.17,0,1,0,20.17,20.17A20.17,20.17,0,0,0,310,642.37Zm90-100.15a20.17,20.17,0,1,0,20.17,20.17A20.17,20.17,0,0,0,400.09,542.22ZM220,442.07a20.17,20.17,0,1,0,20.17,20.17A20.17,20.17,0,0,0,220,442.07Zm0,100.15a20.17,20.17,0,1,0,20.17,20.17A20.17,20.17,0,0,0,220,542.22Zm0,100.15a20.17,20.17,0,1,0,20.17,20.17A20.17,20.17,0,0,0,220,642.37Zm0,100.15a20.17,20.17,0,1,0,20.17,20.17A20.17,20.17,0,0,0,220,742.52Zm180.1-100.15a20.17,20.17,0,1,0,20.17,20.17A20.17,20.17,0,0,0,400.09,642.37ZM310,542.22a20.17,20.17,0,1,0,20.17,20.17A20.17,20.17,0,0,0,310,542.22Zm0,200.3a20.17,20.17,0,1,0,20.17,20.17A20.17,20.17,0,0,0,310,742.52Zm0-300.45a20.17,20.17,0,1,0,20.17,20.17A20.17,20.17,0,0,0,310,442.07Zm-180.1,200.3a20.17,20.17,0,1,0,20.17,20.17A20.17,20.17,0,0,0,129.94,642.37Zm0-100.15a20.17,20.17,0,1,0,20.17,20.17A20.17,20.17,0,0,0,129.94,542.22Zm0-100.15a20.17,20.17,0,1,0,20.17,20.17A20.17,20.17,0,0,0,129.94,442.07ZM593.85,706.15A20.17,20.17,0,1,0,614,726.32,20.17,20.17,0,0,0,593.85,706.15ZM503.8,505.85A20.17,20.17,0,1,0,524,526,20.17,20.17,0,0,0,503.8,505.85ZM593.85,606A20.17,20.17,0,1,0,614,626.17,20.17,20.17,0,0,0,593.85,606ZM503.8,706.15A20.17,20.17,0,1,0,524,726.32,20.17,20.17,0,0,0,503.8,706.15Zm0-100.15A20.17,20.17,0,1,0,524,626.17,20.17,20.17,0,0,0,503.8,606Zm0-200.3A20.17,20.17,0,1,0,524,425.87,20.17,20.17,0,0,0,503.8,405.7Zm180.1,0a20.17,20.17,0,1,0,20.17,20.17A20.16,20.16,0,0,0,683.9,405.7ZM774,606a20.17,20.17,0,1,0,20.17,20.17A20.17,20.17,0,0,0,774,606Zm0,100.15a20.17,20.17,0,1,0,20.17,20.17A20.17,20.17,0,0,0,774,706.15Zm0-300.45a20.17,20.17,0,1,0,20.17,20.17A20.17,20.17,0,0,0,774,405.7Zm0,100.15A20.17,20.17,0,1,0,794.12,526,20.17,20.17,0,0,0,774,505.85ZM593.85,405.7A20.17,20.17,0,1,0,614,425.87,20.17,20.17,0,0,0,593.85,405.7Zm0,100.15A20.17,20.17,0,1,0,614,526,20.17,20.17,0,0,0,593.85,505.85Zm90,200.3a20.17,20.17,0,1,0,20.17,20.17A20.16,20.16,0,0,0,683.9,706.15Zm0-100.15a20.17,20.17,0,1,0,20.17,20.17A20.16,20.16,0,0,0,683.9,606Zm0-100.15A20.17,20.17,0,1,0,704.07,526,20.16,20.16,0,0,0,683.9,505.85Zm-352-175.5a20.17,20.17,0,1,0,20.17,20.17A20.16,20.16,0,0,0,331.9,330.35Zm0-100.14a20.17,20.17,0,1,0,20.17,20.16A20.15,20.15,0,0,0,331.9,230.21Zm-180.1,0A20.17,20.17,0,1,0,172,250.37,20.16,20.16,0,0,0,151.8,230.21Zm0,100.14A20.17,20.17,0,1,0,172,350.52,20.17,20.17,0,0,0,151.8,330.35Zm90-300.44A20.17,20.17,0,1,0,262,50.07,20.17,20.17,0,0,0,241.85,29.91Zm-90,100.15A20.17,20.17,0,1,0,172,150.22,20.17,20.17,0,0,0,151.8,130.06Zm90,100.15A20.17,20.17,0,1,0,262,250.37,20.16,20.16,0,0,0,241.85,230.21Zm-90-200.3A20.17,20.17,0,1,0,172,50.07,20.17,20.17,0,0,0,151.8,29.91Zm90,300.44A20.17,20.17,0,1,0,262,350.52,20.17,20.17,0,0,0,241.85,330.35Zm0-200.29A20.17,20.17,0,1,0,262,150.22,20.17,20.17,0,0,0,241.85,130.06Zm180.1,0a20.17,20.17,0,1,0,20.17,20.16A20.16,20.16,0,0,0,422,130.06Zm0,100.15a20.17,20.17,0,1,0,20.17,20.16A20.15,20.15,0,0,0,422,230.21Zm0-200.3a20.17,20.17,0,1,0,20.17,20.16A20.16,20.16,0,0,0,422,29.91Zm0,300.44a20.17,20.17,0,1,0,20.17,20.17A20.16,20.16,0,0,0,422,330.35ZM331.9,29.91a20.17,20.17,0,1,0,20.17,20.16A20.16,20.16,0,0,0,331.9,29.91Zm0,100.15a20.17,20.17,0,1,0,20.17,20.16A20.16,20.16,0,0,0,331.9,130.06ZM708.76,300.45a20.17,20.17,0,1,0,20.17,20.17A20.17,20.17,0,0,0,708.76,300.45Zm0-200.3a20.17,20.17,0,1,0,20.17,20.17A20.17,20.17,0,0,0,708.76,100.15Zm90,200.3A20.17,20.17,0,1,0,819,320.62,20.17,20.17,0,0,0,798.81,300.45Zm-90-100.15a20.17,20.17,0,1,0,20.17,20.17A20.17,20.17,0,0,0,708.76,200.3Zm0-200.3a20.17,20.17,0,1,0,20.17,20.17A20.17,20.17,0,0,0,708.76,0Zm90,40.34a20.17,20.17,0,1,0-20.17-20.17A20.17,20.17,0,0,0,798.81,40.34Zm0,160A20.17,20.17,0,1,0,819,220.47,20.17,20.17,0,0,0,798.81,200.3Zm0-100.15A20.17,20.17,0,1,0,819,120.32,20.17,20.17,0,0,0,798.81,100.15ZM618.71,0a20.17,20.17,0,1,0,20.17,20.17A20.17,20.17,0,0,0,618.71,0ZM528.66,100.15a20.17,20.17,0,1,0,20.17,20.17A20.17,20.17,0,0,0,528.66,100.15ZM528.66,0a20.17,20.17,0,1,0,20.17,20.17A20.17,20.17,0,0,0,528.66,0Zm0,200.3a20.17,20.17,0,1,0,20.17,20.17A20.17,20.17,0,0,0,528.66,200.3Zm90.05,0a20.17,20.17,0,1,0,20.17,20.17A20.17,20.17,0,0,0,618.71,200.3Zm0-100.15a20.17,20.17,0,1,0,20.17,20.17A20.17,20.17,0,0,0,618.71,100.15Zm0,200.3a20.17,20.17,0,1,0,20.17,20.17A20.17,20.17,0,0,0,618.71,300.45Zm-90.05,0a20.17,20.17,0,1,0,20.17,20.17A20.17,20.17,0,0,0,528.66,300.45Z"/><path class="cls-2" d="M50.71,666.4l74.76-171.95,143.67,75.08,64.63-148.67,143.67,75.08,64.64-148.66,143.67,75.07,64.63-148.66,166.17,86.83-21.9,41.87L773.48,339.08,708.85,487.74,565.18,412.67,500.54,561.33,356.87,486.26,292.24,634.92,148.57,559.85,94.06,685.23,50.71,666.4ZM0,522.85l43.35,18.83L97.86,416.3l143.67,75.07,64.63-148.66,143.67,75.07,64.64-148.66,143.67,75.07,64.63-148.66,121.17,63.32L865.84,217,699.67,130.14,635,278.8,491.36,203.73,426.73,352.39,283.06,277.32,218.43,426,74.75,350.91Z"/></g></g></svg>