<svg xmlns="http://www.w3.org/2000/svg" viewBox="0 0 181.45 185.22"><defs><style>.cls-1,.cls-6{fill:#6c9;}.cls-1{opacity:0.8;}.cls-2{fill:#ccc;}.cls-3{fill:#fc9;}.cls-4{fill:#fff;}.cls-5{fill:#1a1a1a;}.cls-7{fill:#999;}.cls-8{font-size:15.43px;fill:#4c4c4c;font-family:Android101, "Android 101";}.cls-10,.cls-11,.cls-9{fill:none;stroke:#000;stroke-miterlimit:10;}.cls-9{stroke-width:0.64px;}.cls-10{stroke-width:0.96px;}.cls-11{stroke-width:0.32px;}</style></defs><g id="Layer_2" data-name="Layer 2"><g id="Vapor"><rect class="cls-1" x="93.48" y="166.8" width="86.49" height="15.53"/><path class="cls-2" d="M150,160.17a11.7,11.7,0,0,1-10.17-17.5l.5-.88-11.17-8.68a1.19,1.19,0,0,1,.5-2.12c2.09-.41,4-.84,5.71-1.26a16.55,16.55,0,0,0,9.7-7.56,1.26,1.26,0,0,1,.81-.56l.22,0a1.21,1.21,0,0,1,.74.26l5.6,4.36.73-.7a11.72,11.72,0,0,1,16.55.31,11.71,11.71,0,0,1-5.55,19.47,1.53,1.53,0,0,1-.3,0,1.2,1.2,0,0,1-1.12-.77,13.55,13.55,0,0,0-8-8,.54.54,0,0,0-.22,0,.66.66,0,0,0-.6.42.64.64,0,0,0,.38.82,12.2,12.2,0,0,1,6.87,6.38,1.14,1.14,0,0,1,.11.57l.3,2.16a11.72,11.72,0,0,1-10,13.18A11.87,11.87,0,0,1,150,160.17ZM27.17,159.08a11.69,11.69,0,0,1-11.72-11.93,1.19,1.19,0,0,1,1-1.16A13.6,13.6,0,0,0,27,137.35a.62.62,0,0,0,0-.48.63.63,0,0,0-.36-.34.78.78,0,0,0-.22,0,.66.66,0,0,0-.6.42,12.32,12.32,0,0,1-9.25,7.76.82.82,0,0,1-.22,0h-.13l-1.65-.19a11.72,11.72,0,0,1-10.31-13,11.71,11.71,0,0,1,11.61-10.38,12.16,12.16,0,0,1,1.34.07,11.78,11.78,0,0,1,6.79,3.2l.73.69L30,121a1.16,1.16,0,0,1,.74-.25l.24,0a1.19,1.19,0,0,1,.81.6,16.9,16.9,0,0,0,10.06,8.35c1.39.38,2.9.74,4.48,1.09a1.19,1.19,0,0,1,.92.91,1.22,1.22,0,0,1-.43,1.21l-10,7.79.5.87a11.71,11.71,0,0,1-10.15,17.51Zm3.18-97a1.22,1.22,0,0,1-.73-.25L23,56.61l-.72.7A11.71,11.71,0,1,1,10.49,37.76a.2.2,0,0,1,.11,0,12.2,12.2,0,0,1,11.57,3.48.68.68,0,0,0,.47.2.62.62,0,0,0,.44-.18.67.67,0,0,0,.2-.44.63.63,0,0,0-.18-.46,13.58,13.58,0,0,0-8.32-4.1,1.22,1.22,0,0,1-1.07-1.12c0-.23,0-.46,0-.69s0-.38,0-.54l0-.35c0-.29,0-.55.08-.79l0-.28.05-.29a11.7,11.7,0,0,1,13.7-9.3,11.71,11.71,0,0,1,8,17.28l-.49.87,13,10.14a1.21,1.21,0,0,1-.56,2.14c-2,.29-3.68.57-5.27.86-4.86.9-8.83,3.54-10.89,7.26a1.19,1.19,0,0,1-.81.6Zm116-1.06-.2,0a1.16,1.16,0,0,1-.8-.52,14.73,14.73,0,0,0-10.7-6.33q-3.42-.4-6.86-.76a1.19,1.19,0,0,1-1-.86,1.2,1.2,0,0,1,.41-1.28L140.6,40.74l-.5-.87a11.71,11.71,0,0,1,10.15-17.51A11.69,11.69,0,0,1,161.93,35a1.22,1.22,0,0,1-.91,1.08,13.62,13.62,0,0,0-7.5,4.82.65.65,0,0,0,.51,1,.62.62,0,0,0,.5-.25A12.35,12.35,0,0,1,163.07,37h.11l.19,0a11.68,11.68,0,0,1,9.83,12.88,11.66,11.66,0,0,1-11.62,10.37A11.65,11.65,0,0,1,153.45,57l-.72-.69-5.66,4.41A1.27,1.27,0,0,1,146.33,61Z"/><path d="M150.25,23.56a10.49,10.49,0,0,1,10.49,11.33,14.75,14.75,0,0,0-8.16,5.25,1.84,1.84,0,0,0,1.45,3,1.86,1.86,0,0,0,1.45-.71,11.05,11.05,0,0,1,7.7-4.21A10.5,10.5,0,0,1,168,56.86h0a10.57,10.57,0,0,1-13.74-.71l-1.47-1.42-6.48,5.05a15.91,15.91,0,0,0-11.56-6.86c-2.29-.27-4.58-.53-6.88-.76l14.26-11.11-1-1.78a10.52,10.52,0,0,1,3.92-14.33,10.41,10.41,0,0,1,5.19-1.38m-124.86.3a11,11,0,0,1,2,.18,10.52,10.52,0,0,1,8.35,12.3,10.31,10.31,0,0,1-1.18,3.22l-1,1.77L47.38,52.11c-1.82.27-3.6.56-5.31.87-5.35,1-9.52,3.91-11.72,7.86L22.87,55,21.4,56.44A10.51,10.51,0,1,1,6.82,41.31a10.55,10.55,0,0,1,4-2.41,10.69,10.69,0,0,1,2.44-.28,11.09,11.09,0,0,1,8,3.42A1.84,1.84,0,0,0,24,39.5,14.85,14.85,0,0,0,14.91,35c0-.2,0-.41,0-.61s0-.34,0-.49V33.6c0-.25.05-.48.08-.69l0-.25.05-.28a10.53,10.53,0,0,1,10.32-8.52m5.36,98.07a18.16,18.16,0,0,0,10.8,8.93c1.44.39,3,.76,4.54,1.1l-10.83,8.43,1,1.78A10.51,10.51,0,0,1,18,152.58a10.55,10.55,0,0,1-1.37-5.41,14.75,14.75,0,0,0,11.45-9.4,1.84,1.84,0,1,0-3.44-1.28,11.1,11.1,0,0,1-8.35,7l-1.65-.19a10.51,10.51,0,0,1,1.17-21c.4,0,.8,0,1.21.06a10.57,10.57,0,0,1,6.09,2.87l1.48,1.42,6.14-4.78m115.3.86,6.43,5,1.47-1.42a10.51,10.51,0,1,1,9.87,17.76,14.76,14.76,0,0,0-8.68-8.68,1.83,1.83,0,1,0-1.27,3.44,11.11,11.11,0,0,1,6.2,5.76h0l.33,2.39a10.53,10.53,0,0,1-9,11.83,9.78,9.78,0,0,1-1.42.1,10.51,10.51,0,0,1-9.13-15.71l1-1.78-12-9.32c2-.39,4-.82,5.77-1.27a17.64,17.64,0,0,0,10.44-8.1m4.2-101.63h0A12.91,12.91,0,0,0,139,40.43l-12.62,9.83a2.39,2.39,0,0,0,1.22,4.28c2.44.25,4.68.5,6.84.76a13.5,13.5,0,0,1,9.84,5.8,2.42,2.42,0,0,0,1.62,1,2.56,2.56,0,0,0,.39,0,2.39,2.39,0,0,0,1.47-.51l4.84-3.77a12.91,12.91,0,1,0,10.91-22.08,2.22,2.22,0,0,0-.37,0l-.22,0h0a2.3,2.3,0,0,0,.18-.73,12.89,12.89,0,0,0-12.88-13.92Zm-124.86.3h0A12.91,12.91,0,0,0,12.72,31.93l-.06.31c0,.11,0,.2,0,.3a8.78,8.78,0,0,0-.1.88l0,.38c0,.21,0,.41,0,.62s0,.51,0,.77a2.3,2.3,0,0,0,.31,1,13.18,13.18,0,0,0-2.5.33l-.22.06A12.9,12.9,0,1,0,23,58.2l5.84,4.53a2.41,2.41,0,0,0,1.47.51,2.61,2.61,0,0,0,.48-.05A2.38,2.38,0,0,0,32.45,62a14.16,14.16,0,0,1,10.06-6.66c1.57-.29,3.28-.57,5.22-.86a2.39,2.39,0,0,0,1.12-4.26L36.63,40.71a12.9,12.9,0,0,0-8.82-19,12.32,12.32,0,0,0-2.42-.23Zm5.36,98.07a2.42,2.42,0,0,0-1.48.5l-4.5,3.51a13,13,0,0,0-7.46-3.5,14.68,14.68,0,0,0-1.48-.08,12.91,12.91,0,0,0-1.44,25.73l.34,0a2.44,2.44,0,0,0-.48,1.4A12.91,12.91,0,1,0,38.38,141l9.18-7.16a2.39,2.39,0,0,0-1-4.23c-1.57-.34-3.06-.7-4.43-1.07a15.7,15.7,0,0,1-9.31-7.77,2.39,2.39,0,0,0-1.62-1.2,2,2,0,0,0-.49,0Zm115.3.87a2.09,2.09,0,0,0-.43,0,2.38,2.38,0,0,0-1.62,1.11,15.33,15.33,0,0,1-9,7c-1.69.43-3.59.85-5.65,1.25a2.4,2.4,0,0,0-1,4.25l10.35,8a12.91,12.91,0,1,0,24,4.62l-.07-.49a2.43,2.43,0,0,0,1.73.22A12.91,12.91,0,0,0,170.54,125a12.93,12.93,0,0,0-18.23-.37l-4.79-3.72a2.38,2.38,0,0,0-1.47-.5Z"/><path class="cls-3" d="M24.38,84A1.2,1.2,0,0,1,23.21,83L17,55.19a3.48,3.48,0,0,1,.67-6.58,3.29,3.29,0,0,1,.76-.09A3.49,3.49,0,0,1,21,54.28L27.29,82.1a1.21,1.21,0,0,1-.91,1.43l-1.73.39A1.31,1.31,0,0,1,24.38,84Z"/><path d="M18.38,49.12a2.88,2.88,0,0,1,2.82,2.26,2.91,2.91,0,0,1-.82,2.72L26.7,82.23a.55.55,0,0,1-.08.45.6.6,0,0,1-.37.27l-1.74.39h-.13a.6.6,0,0,1-.58-.47L17.47,54.75a2.9,2.9,0,0,1-1.91-2.11,2.9,2.9,0,0,1,2.19-3.45,3.38,3.38,0,0,1,.63-.07m0-1.2a4.59,4.59,0,0,0-.9.1,4.1,4.1,0,0,0-3.09,4.89,4.11,4.11,0,0,0,2,2.69l6.19,27.55a1.83,1.83,0,0,0,2.16,1.36l1.73-.39a1.84,1.84,0,0,0,1.13-.79A1.79,1.79,0,0,0,27.87,82L21.68,54.42a4.09,4.09,0,0,0-3.3-6.5Z"/><path class="cls-3" d="M152.83,80.56a1.24,1.24,0,0,1-.27,0l-1.73-.39a1.21,1.21,0,0,1-.91-1.43l6.26-27.82a3.49,3.49,0,0,1,2.65-5.76,3.49,3.49,0,0,1,3.4,4.25,3.48,3.48,0,0,1-2,2.42L154,79.62A1.2,1.2,0,0,1,152.83,80.56Z"/><path d="M158.83,45.73a3.29,3.29,0,0,1,.63.07,2.9,2.9,0,0,1,2.19,3.45,2.9,2.9,0,0,1-1.91,2.11l-6.32,28.13a.62.62,0,0,1-.59.47h-.13L151,79.56a.6.6,0,0,1-.37-.27.55.55,0,0,1-.08-.45l6.32-28.13A2.91,2.91,0,0,1,156,48a2.88,2.88,0,0,1,2.82-2.26m0-1.2a4.07,4.07,0,0,0-4,3.19,4.13,4.13,0,0,0,.69,3.31l-6.19,27.55a1.81,1.81,0,0,0,.23,1.36,1.91,1.91,0,0,0,1.13.79l1.73.39a1.83,1.83,0,0,0,2.16-1.36l6.19-27.55a4.11,4.11,0,0,0,2-2.69,4.1,4.1,0,0,0-3.09-4.89,4.59,4.59,0,0,0-.9-.1Z"/><path class="cls-4" d="M149.66,97.83a6.08,6.08,0,0,1-1.35-.17,1.51,1.51,0,0,1-1.15-1.46V75.77a1.5,1.5,0,0,1,1.15-1.46,5.54,5.54,0,0,1,1.35-.17h3.19a5.06,5.06,0,0,1,5.28,4.8V93a5.07,5.07,0,0,1-5.28,4.81Z"/><path d="M152.85,75.64a3.56,3.56,0,0,1,3.78,3.3V93a3.57,3.57,0,0,1-3.78,3.31h-3.19a4.47,4.47,0,0,1-1-.13V75.77a4,4,0,0,1,1-.13h3.19m0-3h-3.19a7.45,7.45,0,0,0-1.7.21,3,3,0,0,0-2.3,2.92V96.2a3,3,0,0,0,2.3,2.92,7.45,7.45,0,0,0,1.7.21h3.19A6.56,6.56,0,0,0,159.63,93V78.94a6.56,6.56,0,0,0-6.78-6.3Z"/><path class="cls-4" d="M24.37,97.83A5.07,5.07,0,0,1,19.09,93V78.94a5.06,5.06,0,0,1,5.28-4.8h3.2a5.66,5.66,0,0,1,1.41.19,1.49,1.49,0,0,1,1.13,1.45v20.4A1.51,1.51,0,0,1,29,97.64a5.66,5.66,0,0,1-1.41.19Z"/><path d="M27.57,75.64a4.42,4.42,0,0,1,1,.14v20.4a4,4,0,0,1-1,.15h-3.2A3.57,3.57,0,0,1,20.59,93V78.94a3.57,3.57,0,0,1,3.78-3.3h3.2m0-3h-3.2a6.56,6.56,0,0,0-6.78,6.3V93a6.56,6.56,0,0,0,6.78,6.31h3.2a7,7,0,0,0,1.77-.24,3,3,0,0,0,2.27-2.91V75.78a3,3,0,0,0-2.27-2.91,7,7,0,0,0-1.77-.23Z"/><path class="cls-3" d="M84.93,43.56a4.68,4.68,0,0,1-2.82-.93L82,42.56a3,3,0,0,1-1-2.32,77.87,77.87,0,0,1,1.41-10.53c1.32-6.42,2.81-8.91,5.5-9.19h.39c1.52,0,2.87.88,5.33,2.47l0,0c1.21.83,2.48,1.61,3.78,2.36q1.51-2.92,2.7-5.09a4.83,4.83,0,0,1-.78-1.73v0A5,5,0,0,1,100.8,14a7.84,7.84,0,0,1,4.31-2.15,8.93,8.93,0,0,1,1.47-.12c3.29,0,6,1.8,6.57,4.38a5,5,0,0,1-1.43,4.57A7.47,7.47,0,0,1,109,22.39c-.17.55-.36,1.12-.55,1.7-3.21,10-4.5,13.46-7.81,13.46a3.54,3.54,0,0,1-.73-.07,12.17,12.17,0,0,1-2.41-.8c.19.5.39,1,.6,1.49l.41,1a3,3,0,0,1-.4,3.16l0,.06a3.41,3.41,0,0,1-2.58,1.13h-.17a9.88,9.88,0,0,1-2.42-.47,7.88,7.88,0,0,0-1.7-.34h0l-.6.1-.36.07a32.57,32.57,0,0,1-4.94.64Z"/><path class="cls-5" d="M106.58,13.08c2.64,0,4.79,1.35,5.23,3.3a3.54,3.54,0,0,1-1.06,3.29,6.11,6.11,0,0,1-2.86,1.62c-.25.75-.51,1.55-.77,2.37-3.22,10-4.32,12.52-6.51,12.52h0a2.12,2.12,0,0,1-.44,0,15.35,15.35,0,0,1-4.54-2l-.55-.31a43.12,43.12,0,0,0,1.73,4.85c.18.44.32.81.41,1A1.64,1.64,0,0,1,97,41.51a2,2,0,0,1-1.54.67h-.08a8.41,8.41,0,0,1-2.08-.39,9,9,0,0,0-2.06-.42h-.18l-1.11.2a30.36,30.36,0,0,1-4.77.61h-.25a3.35,3.35,0,0,1-2-.64,1.57,1.57,0,0,1-.54-1.24A73.53,73.53,0,0,1,83.77,30c1.34-6.49,2.69-7.94,4.3-8.11h.25c1.07,0,2.17.69,4.58,2.26A57.24,57.24,0,0,0,98,27.24c.85-1.66,2.38-4.63,3.79-7.15a3.43,3.43,0,0,1-.06-5.15,6.48,6.48,0,0,1,3.56-1.76,7.64,7.64,0,0,1,1.26-.1m0-2.75h0a10.48,10.48,0,0,0-1.68.14A9.12,9.12,0,0,0,99.82,13,6.36,6.36,0,0,0,98,18.8v0a5.66,5.66,0,0,0,.54,1.47c-.52.94-1.08,2-1.67,3.13-.84-.51-1.66-1-2.46-1.58l0,0c-2.59-1.68-4.15-2.7-6.08-2.7h-.25l-.29,0a5.62,5.62,0,0,0-4.32,3,24.25,24.25,0,0,0-2.38,7.26,79.21,79.21,0,0,0-1.43,10.7v0a4.31,4.31,0,0,0,1.45,3.41l.18.15a6.12,6.12,0,0,0,3.65,1.2h.42a34,34,0,0,0,5.13-.66l.34-.07.4-.07a6.43,6.43,0,0,1,1.23.27,11.07,11.07,0,0,0,2.75.53h.26a4.78,4.78,0,0,0,3.61-1.6l.09-.1a4.41,4.41,0,0,0,.67-4.35,5.12,5.12,0,0,0,.78.06c3.29,0,4.77-2.92,5.32-4a79.27,79.27,0,0,0,3.8-10.4c.12-.37.24-.73.35-1.09a8.76,8.76,0,0,0,2.62-1.81,6.34,6.34,0,0,0,1.8-5.79v0c-.72-3.21-4-5.45-7.91-5.45Z"/><path class="cls-5" d="M99.86,36.61a32.58,32.58,0,0,0-3-1.71l-.71-.4-.22-.13-.08-.06c.4.23.1.07,0,0-.37-.26-.74-.5-1.12-.75l-.46-.3c-.2-.13.11.08,0,0a1.88,1.88,0,0,1-.23-.16,8.32,8.32,0,0,1-1-.77l-.47-.46c-.12-.13,0,0,0,0l-.15-.17-.28-.34a1.39,1.39,0,0,0-1.54-.4c-.51.21-.82.73-.48,1.15A10.79,10.79,0,0,0,92,33.94c.34.25.7.49,1.06.73l.43.28.22.14.13.09c-.11-.08-.09-.06,0,0,.48.33.94.64,1.45.93l1.73,1,.86.47.33.19c.14.09.31.22,0,0a1.44,1.44,0,0,0,1.61.1.73.73,0,0,0,.07-1.22Z"/><path class="cls-5" d="M94.92,25.26c.72.47,1.44.93,2.15,1.41.32.22.64.44,1,.69s.31.25.46.38.14.18.2.2-.15-.16-.05-.05a1.59,1.59,0,0,0,.13.13,1.05,1.05,0,0,0,.65.39,1,1,0,0,0,1-1.61,10.74,10.74,0,0,0-2-1.68l-2.2-1.45a1.12,1.12,0,0,0-.75-.21,1,1,0,0,0-.5,1.8Z"/><path class="cls-5" d="M98.14,19A7.59,7.59,0,0,0,101,21.5a1.15,1.15,0,0,0,1.35-.21.69.69,0,0,0-.29-1.07,7.75,7.75,0,0,1-.84-.5l.19.13a7,7,0,0,1-1.22-1.07l.15.16a4.59,4.59,0,0,1-.48-.61A1.14,1.14,0,0,0,98.55,18a.7.7,0,0,0-.41,1Z"/><path class="cls-5" d="M106.43,22.76a9.24,9.24,0,0,0,3.52-.35,1.16,1.16,0,0,0,.63-.38.68.68,0,0,0,.11-.63.94.94,0,0,0-.49-.49,1.32,1.32,0,0,0-.81-.08,7.83,7.83,0,0,1-1.53.31l.28,0a8.88,8.88,0,0,1-1.71,0,1.24,1.24,0,0,0-.74.24.77.77,0,0,0-.31.58.74.74,0,0,0,.31.58,1.42,1.42,0,0,0,.74.24Z"/><path class="cls-5" d="M89.85,23.14a3.55,3.55,0,0,1,.46.41l-.42,0a8.18,8.18,0,0,1-1-.15c-.38-.08-.73-.18-1-.26L87.5,23a1.24,1.24,0,0,1,.33-.25,1.37,1.37,0,0,1,.94-.11A2.83,2.83,0,0,1,89.85,23.14Z"/><path class="cls-5" d="M99.17,34.59a4.91,4.91,0,0,1-.46-.35l.44,0c.26,0,.63.07,1,.14s.75.15,1,.21l.42.11a1.53,1.53,0,0,1-.37.21,1.76,1.76,0,0,1-1,.11A2.88,2.88,0,0,1,99.17,34.59Z"/><path class="cls-5" d="M88.32,19.13h-.25l-.29,0a5.48,5.48,0,0,0-4,2.48H94.08C91.68,20.07,90.17,19.13,88.32,19.13Z"/><rect class="cls-4" x="55.7" y="71.66" width="20.72" height="20.72" rx="4.49"/><rect class="cls-4" x="101.28" y="71.66" width="20.72" height="20.72" rx="4.49"/><path class="cls-4" d="M87.63,134.8c-17.21,0-33.07-1.52-44.68-4.28l-.19,0c-.85-.2-1.66-.41-2.45-.62a10.24,10.24,0,0,1-1.31-.45l-.34-.15c-.37-.17-.74-.35-1.1-.56l-.14-.08a13.84,13.84,0,0,1-1.15-.78l-.16-.12c-.39-.3-.72-.59-1-.89A14.78,14.78,0,0,1,34,125.67l-.06-.08a13.41,13.41,0,0,1-.86-1.11s0,0,0,0a12.92,12.92,0,0,1-2.46-7.24V64.34a9.16,9.16,0,0,1,1.18-4.57,1.34,1.34,0,0,1,.06-.12,10.13,10.13,0,0,1,.8-1.16l.09-.11a10.77,10.77,0,0,1,2.09-1.94l.16-.11a11.42,11.42,0,0,1,1.19-.72l.14-.07c.37-.19.76-.38,1.16-.54l.18-.07c.42-.17.85-.31,1.28-.44l.2-.05c.52-.15,1-.25,1.42-.34,1.09-.2,2.2-.39,3.32-.56l1.37-.21L47.12,53l1.81-.24,1.49-.18C57.32,51.79,65,51.24,73.13,51h.07a2.24,2.24,0,0,1,.52.06,4.57,4.57,0,0,0,1,.12h25c10.41.41,20.88,1.17,31.19,2.26l.43.05c1.78.19,3.55.38,5.28.59a12.13,12.13,0,0,1,1.23.21l.32.07c.34.08.67.18,1,.28l.24.08c.38.13.77.28,1.14.45l.16.08c.34.16.66.33,1,.52l.19.12a11.66,11.66,0,0,1,2,1.57l.09.09a10,10,0,0,1,1.58,2.12,9.54,9.54,0,0,1,1.19,4.67V117.2a12.34,12.34,0,0,1-1.48,5.64,15.21,15.21,0,0,1-2.39,3.36l-.11.12a11.73,11.73,0,0,1-.88.84l-.08.08c-.36.31-.71.59-1.08.85l-.07,0a10.23,10.23,0,0,1-1,.62l-.27.15c-.33.17-.61.31-.9.43l-.34.14a10.23,10.23,0,0,1-1.23.4c-.86.22-1.76.43-2.67.63l-.49.1c-.78.17-1.58.34-2.41.5l-.32.06c-.89.18-1.81.35-2.75.51l-.12,0c-1,.17-2,.34-3.06.5A257.31,257.31,0,0,1,87.63,134.8Z"/><path d="M73.2,53.25a6.56,6.56,0,0,0,1.54.19h25c10.55.41,21.06,1.19,30.95,2.24l.43,0c1.77.18,3.53.38,5.25.58.35,0,.7.11,1,.18l.28.06.81.23.18.06a9,9,0,0,1,.95.38l.14.06a7.37,7.37,0,0,1,.78.43l.15.08a9,9,0,0,1,1.59,1.26l.07.07a7.57,7.57,0,0,1,1.23,1.64h0a7.32,7.32,0,0,1,.91,3.58V117.2a10.12,10.12,0,0,1-1.23,4.6h0a12.79,12.79,0,0,1-2,2.86l-.09.09c-.24.25-.48.49-.74.72l-.09.08c-.29.25-.58.48-.89.7h0c-.28.2-.56.37-.85.54l-.26.13a7.32,7.32,0,0,1-.69.33l-.27.12a7.68,7.68,0,0,1-1,.31c-.84.21-1.72.41-2.61.61l-.47.1-2.37.49-.31.06c-.89.17-1.79.34-2.72.5l-.09,0c-1,.17-2,.33-3,.49h0a253.13,253.13,0,0,1-37.17,2.58c-16.07,0-32.09-1.34-44.17-4.21l-.19,0-2.38-.6a7.93,7.93,0,0,1-1-.37l-.27-.11c-.3-.14-.6-.29-.9-.46l-.1,0c-.33-.2-.65-.42-1-.66l-.17-.13c-.29-.23-.57-.47-.85-.72l-.06-.06a11.1,11.1,0,0,1-.88-.93l0,0c-.28-.33-.54-.67-.79-1h0a10.67,10.67,0,0,1-2.06-6V64.34a7,7,0,0,1,.89-3.47l0,0a6.6,6.6,0,0,1,.63-.93l.07-.08a8.59,8.59,0,0,1,1.65-1.53l.14-.09a7.89,7.89,0,0,1,1-.6l.1-.05c.32-.17.65-.32,1-.46L38.4,57c.36-.14.72-.26,1.09-.37l.24-.06c.38-.11.77-.2,1.16-.28,1.07-.19,2.16-.38,3.26-.55l1.35-.21,1.93-.28L49.21,55l1.48-.18c7-.85,14.63-1.37,22.51-1.6m0-4.5h-.13c-8.25.24-16,.79-22.92,1.63h-.07l-1.44.18-1.83.24-2,.29-.34,0-1.05.16c-1.26.2-2.36.39-3.36.58-.48.09-1,.2-1.54.35l-.31.09c-.51.15-1,.32-1.47.5l-.22.09c-.45.18-.9.39-1.33.61l-.17.09a15.84,15.84,0,0,0-1.4.85l-.16.12A12.7,12.7,0,0,0,30.91,57l-.1.13a12.28,12.28,0,0,0-1,1.49l0,.07,0,.07a11.39,11.39,0,0,0-1.44,5.62V117.2a15.18,15.18,0,0,0,2.87,8.52v0c.32.46.67.91,1,1.34l.09.1a16.51,16.51,0,0,0,1.16,1.22l.12.11c.34.32.73.64,1.13,1l0,0,.18.13a15.44,15.44,0,0,0,1.38.94l.21.11a13.29,13.29,0,0,0,1.25.64l.39.17a13,13,0,0,0,1.59.54c.79.22,1.63.43,2.49.64l.18,0c11.8,2.8,27.85,4.34,45.23,4.34a259.14,259.14,0,0,0,37.85-2.64c1.06-.16,2.11-.33,3.13-.51h.07c1-.17,1.91-.34,2.83-.52l.11,0,.21,0c.84-.16,1.65-.33,2.45-.51l.18,0,.31-.06c1-.23,1.9-.44,2.74-.65a10.63,10.63,0,0,0,1.49-.48l.36-.15,0,0c.35-.15.7-.31,1-.49l0,0,.33-.18c.41-.23.79-.47,1.16-.72l.11-.08a15.38,15.38,0,0,0,1.22-1l.14-.12c.34-.31.68-.63,1-1l.13-.15a17.24,17.24,0,0,0,2.73-3.84A14.67,14.67,0,0,0,149,117.2V64.34a11.75,11.75,0,0,0-1.47-5.76,12.4,12.4,0,0,0-1.94-2.6l-.11-.11A12.78,12.78,0,0,0,143.1,54l-.19-.12a12.37,12.37,0,0,0-1.18-.63l-.19-.09a13.33,13.33,0,0,0-1.36-.55l-.27-.08c-.37-.12-.76-.23-1.15-.32a2.62,2.62,0,0,0-.38-.09c-.52-.11-1-.19-1.43-.25l-5.31-.59-.24,0-.19,0c-10.36-1.09-20.88-1.85-31.25-2.26H74.74a2.27,2.27,0,0,1-.5-.06,4.55,4.55,0,0,0-1-.12Z"/><path class="cls-4" d="M105.93,55.57c-7.8-.41-15.34-.61-22.42-.61-3.64,0-7.3,0-10.88.16h0a1.5,1.5,0,0,1-1.49-1.34,1.41,1.41,0,0,1,0-.2V46.41c0-1,.41-2.88,3.17-3.83,3.3-1.14,8.28-1.77,14-1.77a68.39,68.39,0,0,1,16,1.74,4,4,0,0,1,3.28,3.86v7.17a4.08,4.08,0,0,1-.07.77A1.51,1.51,0,0,1,106,55.57Z"/><path d="M88.26,42.31A66.76,66.76,0,0,1,103.9,44a2.54,2.54,0,0,1,2.16,2.41v7.17a2.63,2.63,0,0,1,0,.49c-7.65-.4-15.2-.61-22.49-.61h0q-5.64,0-10.93.16V46.41c0-1.33,1-2,2.16-2.41,3.41-1.18,8.39-1.69,13.52-1.69m0-3c-4.17,0-10.07.33-14.51,1.86-3.76,1.31-4.17,4.11-4.17,5.25v7.17c0,.08,0,.18,0,.28a3.06,3.06,0,0,0,.9,1.92,3,3,0,0,0,2.09.84h.1c3.55-.11,7.2-.16,10.83-.16,7.06,0,14.57.2,22.35.61H106A3,3,0,0,0,109,54.62a5.31,5.31,0,0,0,.1-1V46.41a5.53,5.53,0,0,0-4.4-5.32,70,70,0,0,0-16.4-1.79Z"/><path class="cls-5" d="M130.27,64.81c-26.82-3.35-60.18-4.47-83.24,0C43.19,65.55,40,68.1,40,72.15V90.79c0,4.06,3.3,8.54,7.07,9.61,22,6.2,61.8,5.64,83.24,0,3.79-1,7.08-5.55,7.08-9.61V72.15C137.35,68.1,134.15,65.29,130.27,64.81ZM76.42,87.89a4.49,4.49,0,0,1-4.5,4.49H60.2a4.49,4.49,0,0,1-4.5-4.49V76.16a4.5,4.5,0,0,1,4.5-4.5H71.92a4.5,4.5,0,0,1,4.5,4.5Zm45.58,0a4.49,4.49,0,0,1-4.5,4.49H105.78a4.49,4.49,0,0,1-4.5-4.49V76.16a4.5,4.5,0,0,1,4.5-4.5H117.5a4.5,4.5,0,0,1,4.5,4.5Z"/><path class="cls-5" d="M74.8,112.45c-2.74,0-4.63,2.56-3.47,4.81C74.26,123,80.87,127,88.56,127s14.3-4,17.23-9.71c1.16-2.25-.73-4.81-3.47-4.81Z"/><rect class="cls-6" x="55.7" y="71.66" width="20.72" height="20.72" rx="4.49"/><rect class="cls-6" x="101.28" y="71.66" width="20.72" height="20.72" rx="4.49"/><rect class="cls-7" x="0.25" y="3.83" width="173.51" height="0.75"/><rect class="cls-7" y="0.15" width="0.5" height="8.55"/><rect class="cls-7" x="174.03" y="0.15" width="0.5" height="8.55"/><rect class="cls-7" x="80.16" y="151.6" width="64.69" height="0.77"/><path class="cls-7" d="M146,144l-1.5,8.06.5.09,1.45-7.84C146.29,144.22,146.15,144.12,146,144Z"/><path d="M82.2,147.58v-1.2H81v-1.2h1.2V144h1.2v1.2h1.2V144h1.2v1.2H87v1.2H85.8v1.2H87v1.2H85.8V150H84.6v-1.2H83.4V150H82.2v-1.2H81v-1.2Zm1.2-1.2v1.2h1.2v-1.2Z"/><path d="M89.4,148.78H93v-3.6H88.2V144h6v6h-6v-3.6h1.2Z"/><path d="M95.4,150v-1.2h4.8v-1.2H95.4V144h6v6Zm1.2-4.8v1.2h3.6v-1.2Z"/><path d="M102.6,144h6v1.2h-4.8v1.2h4.8v1.2h-4.8V150h-1.2Z"/><path d="M109.8,144h6v1.2H111v3.6h4.8V150h-6Z"/><path d="M120,150v-1.2h1.17l-1.17-3-1.63,4.2H117l2.4-6h1.2l2.4,6Z"/><path d="M124.2,150v-1.2H129v-1.2h-4.8V144h6v6Zm1.2-4.8v1.2H129v-1.2Z"/><text class="cls-8" transform="translate(98.37 179.28) scale(0.8 1)">BP: SMALL</text><rect class="cls-4" x="76.56" width="26.72" height="7.25"/><path d="M78.64.9V6.53H77.52V.9Z"/><path d="M79.77.9h5.62V4.28h-4.5V5.4h4.5V6.53H79.77V3.15h4.5V2h-4.5Z"/><path d="M92.14,6.53H86.52V5.4H91V4.28h-4.5V3.15H91V2h-4.5V.9h5.62Z"/><path d="M94,6.46h-.84V2.24h4.22V4.77H94Zm2.54-2.53V3.08H94v.85Z"/><path d="M99.78,4.35,98.19,2.24h1.06l1,1.41,1.06-1.41h1l-1.58,2.11,1.58,2.11h-1L100.3,5.05l-1,1.41H98.19Z"/><polygon class="cls-7" points="55.2 177.1 54.58 176.99 62.41 97.15 63.03 97.26 55.2 177.1"/><rect class="cls-7" x="4.41" y="176.51" width="50.75" height="0.59"/><path d="M6.87,173.28v-1.13H5.74V171H6.87v-1.12H8V171H9.11v-1.12h1.12V171h1.13v1.12H10.23v1.13h1.13v1.12H10.23v1.12H9.11V174.4H8v1.12H6.87V174.4H5.74v-1.12ZM8,172.15v1.13H9.11v-1.13Z"/><path d="M15.29,175.52V174.4h1.09l-1.09-2.81-1.53,3.93H12.48l2.25-5.61h1.12l2.25,5.61Z"/><path d="M24.84,169.91v5.61H19.22v-5.61ZM20.34,171v1.12h3.37V171Zm0,2.25v1.12h3.37v-1.12Z"/><path d="M31.58,169.91V171h-4.5v1.12h4.5v1.13h-4.5v1.12h4.5v1.12H26v-5.61Z"/><path d="M32.7,169.91h5.61V171H33.82v1.12h4.49v1.13H33.82v2.24H32.7Z"/><path d="M42.24,175.52V174.4h1.09l-1.09-2.81-1.52,3.93H39.44l2.24-5.61h1.13l2.24,5.61Z"/><path d="M51.79,169.91v5.61H46.18v-5.61ZM47.3,171v1.12h3.37V171Zm0,2.25v1.12h3.37v-1.12Z"/><rect x="92.14" y="181.69" width="73.45" height="1.39"/><polygon points="142.77 185.22 92.14 185.22 92.14 182.57 147.19 182.57 142.77 185.22"/><polygon class="cls-4" points="122.03 182.57 111.69 182.57 109.75 184.33 120.16 184.33 122.03 182.57"/><polygon points="180.35 183.39 176.86 183.43 176.86 182.26 181.45 182.26 180.35 183.39"/><line class="cls-9" x1="164.3" y1="182.38" x2="177.38" y2="182.38"/><polygon class="cls-4" points="133.24 182.57 122.89 182.57 120.96 184.33 131.36 184.33 133.24 182.57"/><polygon class="cls-4" points="107.37 182.57 106.11 182.57 105.53 182.57 103.6 184.33 106.11 184.33 107.37 184.33 107.58 184.33 109.45 182.57 107.37 182.57"/><polygon class="cls-4" points="101.31 182.57 100.04 182.57 99.47 182.57 97.53 184.33 100.04 184.33 101.31 184.33 101.51 184.33 103.39 182.57 101.31 182.57"/><line class="cls-10" x1="113.04" y1="166.8" x2="151.9" y2="166.8"/><line class="cls-11" x1="97.61" y1="166.8" x2="129.03" y2="166.8"/><line class="cls-11" x1="146.46" y1="166.8" x2="177.88" y2="166.8"/></g></g></svg>