<svg id="JollyRobot" xmlns="http://www.w3.org/2000/svg" viewBox="0 0 395.16 348.37"><defs><style>.cls-1{fill:#333;}.cls-2{fill:#fff;}.cls-3{fill:#ccc;}.cls-4{fill:#fc9;}.cls-5{fill:#6c9;}</style></defs><path class="cls-1" d="M385.63,422a34.84,34.84,0,0,1-32.89-46.24l-24.25-18.85c-23.54,3.53-50.81,5.4-78.94,5.4-28.46,0-55.32-1.95-77.77-5.63L150.3,373.37a34.83,34.83,0,0,1-32.86,46.27,34.82,34.82,0,0,1-34.82-32.71,34.85,34.85,0,0,1,10.49-68.05,35.94,35.94,0,0,1,4,.23,35,35,0,0,1,15.2,5.51l6.62-5.16a33.77,33.77,0,0,1-.55-5.87v-31.5h-7.65A21.82,21.82,0,0,1,89,260.3V236.18a21.82,21.82,0,0,1,21.79-21.79h7.65V203.23a28,28,0,0,1,.16-2.94l-9.92-7.71A34.84,34.84,0,0,1,65.29,138.4a35,35,0,0,1,13.61-8.1l.16-2.2.07-.55c.05-.33.09-.6.14-.88l.13-.77a34.87,34.87,0,0,1,34.21-28.34,35.26,35.26,0,0,1,6.55.62,34.85,34.85,0,0,1,27.69,40.75,35.4,35.4,0,0,1-1.3,4.85l28.95,22.51c9.55-1,19.81-1.83,30.56-2.36V150.62c0-7.57,4.72-13.72,12.63-16.46,6-2.08,13.73-3.4,22.95-3.93.46-26.35,2.06-34.81,10.24-35.74a8.88,8.88,0,0,1,.9,0c3.56,0,6.08,2.12,10.25,5.65l2.17,1.82q1.11-2.82,2.09-5.22a12.38,12.38,0,0,1-1.08-3.19,12.51,12.51,0,0,1,2.16-9.74,13.63,13.63,0,0,1,8.56-5.47,14.34,14.34,0,0,1,2.69-.26,13.06,13.06,0,0,1,13,10.33,12.72,12.72,0,0,1-2.32,10,13.53,13.53,0,0,1-3.95,3.54l-.51,2.23c-4.15,17.88-6,25.84-11.76,27.41a109.17,109.17,0,0,1,12.54,2.38c8.21,2.14,13.53,8.71,13.53,16.73v14.46c7.65.49,15.35,1.08,22.95,1.74l30.35-23.63a34.84,34.84,0,1,1,67.68-13.55,34.82,34.82,0,1,1-29.69,62.3l-7,5.42a32,32,0,0,1,.56,5.87v11.16h7.54a21.82,21.82,0,0,1,21.79,21.79V260.3a21.82,21.82,0,0,1-21.79,21.8H385v31.49a35,35,0,0,1-1,8.17l6.65,5.17a34.43,34.43,0,0,1,19.13-5.74h.69a34.6,34.6,0,0,1,24.44,10.66,34.84,34.84,0,0,1-14.49,57.35,35,35,0,0,1-30.08,32.44,35.65,35.65,0,0,1-4.72.32Z" transform="translate(-52.42 -75.82)"/><path class="cls-2" d="M279.62,80.24a10.85,10.85,0,0,1,10.78,8.54A10.44,10.44,0,0,1,288.48,97a11.32,11.32,0,0,1-4.1,3.39l-.74,3.2c-4.68,20.18-6.28,26-12,26a5.51,5.51,0,0,1-1.56-.23,15.87,15.87,0,0,1-2.89-1.17l.25.88a8.21,8.21,0,0,1,.29,3.93A121.41,121.41,0,0,1,286,136c7.21,1.88,11.87,7.61,11.87,14.59v14.95c0,.53,0,1.06-.08,1.58q12.93.81,25.92,2l32.33-25.18a32.62,32.62,0,1,1,62.88-12.61,32.63,32.63,0,0,1,11.63,57.26h0a32.86,32.86,0,0,1-39.25.62L382,196.46a29.66,29.66,0,0,1,.81,6.77v13.53a17.72,17.72,0,0,1,2.32-.16h7.43a19.6,19.6,0,0,1,19.57,19.58V260.3a19.6,19.6,0,0,1-19.57,19.58h-7.43a19.65,19.65,0,0,1-2.32-.15v33.86a33,33,0,0,1-1.3,9l9.1,7.07a32.24,32.24,0,0,1,19.21-6.28h.64a32.44,32.44,0,0,1,22.89,10,32.62,32.62,0,0,1-15.05,54.14,32.69,32.69,0,0,1-28.23,31.93,33,33,0,0,1-4.42.3h0A32.63,32.63,0,0,1,355.38,375l-26.29-20.43c-23.27,3.55-50.95,5.51-79.54,5.51-29,0-56-2-78.37-5.76l-23.52,18.33a32.62,32.62,0,0,1-30.22,44.79h0a32.6,32.6,0,0,1-32.67-32.17,32.63,32.63,0,0,1,8.33-64.16,33.86,33.86,0,0,1,3.76.22,32.82,32.82,0,0,1,15.54,6.06l9-7a31.82,31.82,0,0,1-.77-6.78V279.71a19.6,19.6,0,0,1-2.44.17h-7.43A19.6,19.6,0,0,1,91.17,260.3V236.18a19.6,19.6,0,0,1,19.57-19.58h7.43a19.6,19.6,0,0,1,2.44.17V203.23a29.77,29.77,0,0,1,.28-3.92l-12.19-9.48A32.62,32.62,0,1,1,81,132v-.35l.24-3.26c0-.18,0-.35.07-.52s.08-.55.12-.81l.13-.76a32.67,32.67,0,0,1,32-26.51,33,33,0,0,1,6.14.58,32.62,32.62,0,0,1,25.92,38.16,32,32,0,0,1-1.76,6l30.94,24.05c10.43-1.15,21.6-2,33.45-2.54,0-.16,0-.31,0-.47V150.62c0-6.58,4.16-12,11.14-14.36,7.38-2.56,16.5-3.58,24.4-3.92.41-27.87,2.1-34.94,8.31-35.65.19,0,.46,0,.65,0h0c2.75,0,4.91,1.82,8.83,5.13,1.38,1.17,2.93,2.49,4.56,3.75,1-2.69,2.31-5.94,3.58-9a10.16,10.16,0,0,1-1.37-3.47c-1.12-5.77,2.9-11.42,9-12.61a12.38,12.38,0,0,1,2.27-.22m0-4.42a16.23,16.23,0,0,0-3.11.3C268,77.77,262.44,85.75,264,93.92a15.28,15.28,0,0,0,.85,2.82c-.2.48-.4,1-.61,1.5-4.29-3.63-7.18-6-11.49-6a10.92,10.92,0,0,0-1.15.07c-7,.8-9.12,6.67-10.14,11-1.15,4.89-1.75,12.23-2,24.83a85.49,85.49,0,0,0-21.5,3.92c-8.71,3-14.12,10.12-14.12,18.55v11.2c-9.7.51-19,1.24-27.69,2.17l-27-21a34.93,34.93,0,0,0,.89-3.63A37.07,37.07,0,0,0,120.58,96a38.08,38.08,0,0,0-7-.66,37.08,37.08,0,0,0-36.38,30.11v.06l-.13.76c-.06.33-.1.62-.15.94s0,.42-.08.62v.22l0,.63a37.15,37.15,0,0,0-13,8.13,37.06,37.06,0,0,0,44.75,58.47l7.74,6c0,.67-.06,1.3-.06,1.93v9h-5.44a24,24,0,0,0-24,24V260.3a24,24,0,0,0,24,24h5.44v29.28a33.73,33.73,0,0,0,.37,4.93l-4.37,3.4a37.11,37.11,0,0,0-14.82-5,37.84,37.84,0,0,0-4.25-.24,37.06,37.06,0,0,0-12.57,71.89,37,37,0,0,0,72.59,6,36.72,36.72,0,0,0-.24-20.42L172.38,359c22.37,3.6,49,5.5,77.17,5.5a547.58,547.58,0,0,0,78.33-5.28l22.28,17.32a37,37,0,0,0,35.47,47.65,36.71,36.71,0,0,0,5-.34,37.28,37.28,0,0,0,31.87-33,37,37,0,0,0,14-60.51,36.84,36.84,0,0,0-26-11.34h-.72a36.61,36.61,0,0,0-19,5.25l-4.32-3.36a36.28,36.28,0,0,0,.75-7.28V284.31h5.32a24,24,0,0,0,24-24V236.18a24,24,0,0,0-24-24h-5.32v-9a33.38,33.38,0,0,0-.38-4.94l4.7-3.66a37.56,37.56,0,0,0,19,5.2,37.16,37.16,0,0,0,22.37-7.48h0l.35-.27A37.05,37.05,0,0,0,423.18,128a37.25,37.25,0,0,0-4.67-14.61A36.83,36.83,0,0,0,396.1,96a37,37,0,0,0-45.27,46.37l-28.44,22.15c-6.64-.57-13.37-1.09-20.07-1.53V150.62c0-9.06-6-16.47-15.19-18.87-2.25-.59-4.76-1.13-7.46-1.6a18.19,18.19,0,0,0,2.42-4.24c1.87-4.35,3.46-11,5.86-21.31.11-.45.21-.9.32-1.35a15.68,15.68,0,0,0,3.76-3.6,14.89,14.89,0,0,0,2.72-11.71,15.27,15.27,0,0,0-15.13-12.12Z" transform="translate(-52.42 -75.82)"/><path class="cls-1" d="M192.15,338,156.9,292.71l-44.5,34.66a32.82,32.82,0,0,0-15.54-6.06,32.63,32.63,0,0,0-12.09,63.94,32.6,32.6,0,0,0,32.67,32.17,32.63,32.63,0,0,0,30.22-44.79Zm-55.21,35.67a22.52,22.52,0,1,1-42,10.73,31.71,31.71,0,0,0,24.54-20.14,3.94,3.94,0,0,0-7.39-2.75,23.75,23.75,0,0,1-17.88,15l-3.53-.4a22.52,22.52,0,0,1-11.48-40,22.34,22.34,0,0,1,16.56-4.76,22.64,22.64,0,0,1,13.07,6.15l3.15,3,43.19-33.64L178,336.21l-43.19,33.64Z" transform="translate(-52.42 -75.82)"/><path class="cls-1" d="M418.94,131.32a32.83,32.83,0,0,0-4.28-15.73,32.62,32.62,0,0,0-58.6,28.34l-44.5,34.66,35.25,45.26,44.51-34.65a32.85,32.85,0,0,0,39.25-.62h0a32.63,32.63,0,0,0-11.63-57.26Zm14,34.06a22.62,22.62,0,0,1-8.54,15.22h0a22.64,22.64,0,0,1-29.44-1.53l-3.15-3-43.19,33.63-22.84-29.32,43.2-33.63-2.17-3.81a22.51,22.51,0,1,1,42-9.39,31.61,31.61,0,0,0-17.48,11.25,3.94,3.94,0,0,0,6.22,4.83,23.74,23.74,0,0,1,16.51-9A22.53,22.53,0,0,1,432.9,165.38Z" transform="translate(-52.42 -75.82)"/><path class="cls-1" d="M143.91,144.53a32,32,0,0,0,1.76-6,32.62,32.62,0,1,0-64.09-12.23l-.13.76c0,.26-.08.52-.12.81s0,.34-.07.52l-1.21,1.33,1,1.93V132a32.62,32.62,0,1,0,27.68,57.85l69,53.66,3-4.58c8.45-12.86,15-26.87,21.27-40.43l3-6.46Zm31.3,84.2-67-52.07-3.15,3a22.52,22.52,0,1,1-22.59-37.6,23.76,23.76,0,0,1,22.38,6.73,3.94,3.94,0,0,0,5.71-5.43,31.67,31.67,0,0,0-19.41-9.57c0-.44,0-.89,0-1.32s0-.73,0-1l0-.72c0-.52.09-1,.15-1.48,0-.18,0-.36.08-.54l.11-.58a22.51,22.51,0,1,1,41.68,15.38l-2.16,3.8,61.41,47.73C187.18,206.38,181.74,218,175.21,228.73Z" transform="translate(-52.42 -75.82)"/><path class="cls-1" d="M433.33,333.39a32.64,32.64,0,0,0-42.74-3.71l-72.06-56-3,4.37c-9.38,13.49-18.13,27-26,40l-2.32,3.84L355.38,375a32.63,32.63,0,1,0,62.9,12.55,32.62,32.62,0,0,0,15.05-54.14Zm-5.73,36.46a22.55,22.55,0,0,1-12.24,8,31.66,31.66,0,0,0-18.6-18.6h0a3.94,3.94,0,0,0-2.73,7.39A23.77,23.77,0,0,1,407.32,379h-.05l.7,5.12A22.52,22.52,0,1,1,366.09,376l2.16-3.8-67.81-52.72c6.3-10.26,13.11-20.75,20.32-31.27l70.3,54.65,3.15-3a22.51,22.51,0,0,1,33.39,30Z" transform="translate(-52.42 -75.82)"/><path class="cls-1" d="M192.15,338,156.9,292.71l-44.5,34.66a32.82,32.82,0,0,0-15.54-6.06,32.63,32.63,0,0,0-12.09,63.94,32.6,32.6,0,0,0,32.67,32.17,32.63,32.63,0,0,0,30.22-44.79Zm-55.21,35.67a22.52,22.52,0,1,1-42,10.73,31.71,31.71,0,0,0,24.54-20.14,3.94,3.94,0,0,0-7.39-2.75,23.75,23.75,0,0,1-17.88,15l-3.53-.4a22.52,22.52,0,0,1-11.48-40,22.34,22.34,0,0,1,16.56-4.76,22.64,22.64,0,0,1,13.07,6.15l3.15,3,43.19-33.64L178,336.21l-43.19,33.64Z" transform="translate(-52.42 -75.82)"/><path class="cls-1" d="M418.94,131.32a32.83,32.83,0,0,0-4.28-15.73,32.62,32.62,0,0,0-58.6,28.34l-44.5,34.66,35.25,45.26,44.51-34.65a32.85,32.85,0,0,0,39.25-.62h0a32.63,32.63,0,0,0-11.63-57.26Zm14,34.06a22.62,22.62,0,0,1-8.54,15.22h0a22.64,22.64,0,0,1-29.44-1.53l-3.15-3-43.19,33.63-22.84-29.32,43.2-33.63-2.17-3.81a22.51,22.51,0,1,1,42-9.39,31.61,31.61,0,0,0-17.48,11.25,3.94,3.94,0,0,0,6.22,4.83,23.74,23.74,0,0,1,16.51-9A22.53,22.53,0,0,1,432.9,165.38Z" transform="translate(-52.42 -75.82)"/><path class="cls-1" d="M143.91,144.53a32,32,0,0,0,1.76-6,32.62,32.62,0,1,0-64.09-12.23l-.13.76c0,.26-.08.52-.12.81s0,.34-.07.52l-1.21,1.33,1,1.93V132a32.62,32.62,0,1,0,27.68,57.85l69,53.66,3-4.58c8.45-12.86,15-26.87,21.27-40.43l3-6.46Zm31.3,84.2-67-52.07-3.15,3a22.52,22.52,0,1,1-22.59-37.6,23.76,23.76,0,0,1,22.38,6.73,3.94,3.94,0,0,0,5.71-5.43,31.67,31.67,0,0,0-19.41-9.57c0-.44,0-.89,0-1.32s0-.73,0-1l0-.72c0-.52.09-1,.15-1.48,0-.18,0-.36.08-.54l.11-.58a22.51,22.51,0,1,1,41.68,15.38l-2.16,3.8,61.41,47.73C187.18,206.38,181.74,218,175.21,228.73Z" transform="translate(-52.42 -75.82)"/><path class="cls-1" d="M433.33,333.39a32.64,32.64,0,0,0-42.74-3.71l-72.06-56-3,4.37c-9.38,13.49-18.13,27-26,40l-2.32,3.84L355.38,375a32.63,32.63,0,1,0,62.9,12.55,32.62,32.62,0,0,0,15.05-54.14Zm-5.73,36.46a22.55,22.55,0,0,1-12.24,8,31.66,31.66,0,0,0-18.6-18.6h0a3.94,3.94,0,0,0-2.73,7.39A23.77,23.77,0,0,1,407.32,379h-.05l.7,5.12A22.52,22.52,0,1,1,366.09,376l2.16-3.8-67.81-52.72c6.3-10.26,13.11-20.75,20.32-31.27l70.3,54.65,3.15-3a22.51,22.51,0,0,1,33.39,30Z" transform="translate(-52.42 -75.82)"/><path class="cls-3" d="M185.06,337.1l-43.73,34a27.57,27.57,0,1,1-51.26,10,27.57,27.57,0,1,1,22.22-47.27L156,299.8Z" transform="translate(-52.42 -75.82)"/><path class="cls-3" d="M427.47,184.59a27.58,27.58,0,0,1-36.05-1.88l-43.73,34-29-37.29,43.73-34.05a27.57,27.57,0,1,1,51.26-10,27.57,27.57,0,0,1,13.83,49.14Z" transform="translate(-52.42 -75.82)"/><path class="cls-3" d="M198.72,193.54,137.59,146a27.57,27.57,0,1,0-51-18.79l-.12.66c0,.22-.07.43-.1.66-.09.65-.16,1.31-.2,2,0,0,0,0,0,0l0,.66c0,.44,0,.89,0,1.33a26.81,26.81,0,0,0,.25,3.58,27.57,27.57,0,1,0,22.27,47.24l43.75,34,24.17,18.79C185.32,222.73,192,208.07,198.72,193.54Z" transform="translate(-52.42 -75.82)"/><path class="cls-3" d="M429.69,336.9a27.57,27.57,0,0,0-39-.73l-71.07-55.24q-13.54,19.49-25.86,39.77l67.92,52.79A27.57,27.57,0,1,0,413,383.41a27.56,27.56,0,0,0,16.72-46.51Z" transform="translate(-52.42 -75.82)"/><path class="cls-1" d="M192.15,338,156.9,292.71l-44.5,34.66a32.82,32.82,0,0,0-15.54-6.06,32.63,32.63,0,0,0-12.09,63.94,32.6,32.6,0,0,0,32.67,32.17,32.63,32.63,0,0,0,30.22-44.79Zm-55.21,35.67a22.52,22.52,0,1,1-42,10.73,31.71,31.71,0,0,0,24.54-20.14,3.94,3.94,0,0,0-7.39-2.75,23.75,23.75,0,0,1-17.88,15l-3.53-.4a22.52,22.52,0,0,1-11.48-40,22.34,22.34,0,0,1,16.56-4.76,22.64,22.64,0,0,1,13.07,6.15l3.15,3,43.19-33.64L178,336.21l-43.19,33.64Z" transform="translate(-52.42 -75.82)"/><path class="cls-1" d="M418.94,131.32a32.83,32.83,0,0,0-4.28-15.73,32.62,32.62,0,0,0-58.6,28.34l-44.5,34.66,35.25,45.26,44.51-34.65a32.85,32.85,0,0,0,39.25-.62h0a32.63,32.63,0,0,0-11.63-57.26Zm14,34.06a22.62,22.62,0,0,1-8.54,15.22h0a22.64,22.64,0,0,1-29.44-1.53l-3.15-3-43.19,33.63-22.84-29.32,43.2-33.63-2.17-3.81a22.51,22.51,0,1,1,42-9.39,31.61,31.61,0,0,0-17.48,11.25,3.94,3.94,0,0,0,6.22,4.83,23.74,23.74,0,0,1,16.51-9A22.53,22.53,0,0,1,432.9,165.38Z" transform="translate(-52.42 -75.82)"/><path class="cls-1" d="M143.91,144.53a32,32,0,0,0,1.76-6,32.62,32.62,0,1,0-64.09-12.23l-.13.76c0,.26-.08.52-.12.81s0,.34-.07.52l-1.21,1.33,1,1.93V132a32.62,32.62,0,1,0,27.68,57.85l69,53.66,3-4.58c8.45-12.86,15-26.87,21.27-40.43l3-6.46Zm31.3,84.2-67-52.07-3.15,3a22.52,22.52,0,1,1-22.59-37.6,23.76,23.76,0,0,1,22.38,6.73,3.94,3.94,0,0,0,5.71-5.43,31.67,31.67,0,0,0-19.41-9.57c0-.44,0-.89,0-1.32s0-.73,0-1l0-.72c0-.52.09-1,.15-1.48,0-.18,0-.36.08-.54l.11-.58a22.51,22.51,0,1,1,41.68,15.38l-2.16,3.8,61.41,47.73C187.18,206.38,181.74,218,175.21,228.73Z" transform="translate(-52.42 -75.82)"/><path class="cls-1" d="M433.33,333.39a32.64,32.64,0,0,0-42.74-3.71l-72.06-56-3,4.37c-9.38,13.49-18.13,27-26,40l-2.32,3.84L355.38,375a32.63,32.63,0,1,0,62.9,12.55,32.62,32.62,0,0,0,15.05-54.14Zm-5.73,36.46a22.55,22.55,0,0,1-12.24,8,31.66,31.66,0,0,0-18.6-18.6h0a3.94,3.94,0,0,0-2.73,7.39A23.77,23.77,0,0,1,407.32,379h-.05l.7,5.12A22.52,22.52,0,1,1,366.09,376l2.16-3.8-67.81-52.72c6.3-10.26,13.11-20.75,20.32-31.27l70.3,54.65,3.15-3a22.51,22.51,0,0,1,33.39,30Z" transform="translate(-52.42 -75.82)"/><path class="cls-4" d="M246.92,138.91a5,5,0,0,1-3.72-1.23,3.25,3.25,0,0,1-.9-2.38,166.43,166.43,0,0,1,2.28-19.91c2.22-12.53,4.46-15.32,7.13-15.65l.4,0c1.78,0,3.61,1.33,7.59,4.35a95.4,95.4,0,0,0,8.51,6c1.41-3.22,3.94-8.94,6.29-13.81a7.18,7.18,0,0,1-1.85-3.58,7.66,7.66,0,0,1,1.75-6.36,10.17,10.17,0,0,1,5.9-3.4,11.27,11.27,0,0,1,2.08-.2c4.37,0,7.94,2.62,8.67,6.38a7.64,7.64,0,0,1-1.75,6.35,10,10,0,0,1-4.75,3.12c-.41,1.45-.84,3-1.28,4.59-5.33,19.3-7.15,24.16-10.78,24.16h0a3.06,3.06,0,0,1-.74-.09c-2.83-.71-5-2.14-7.52-3.79-.29-.2-.59-.4-.91-.6a95.05,95.05,0,0,0,2.86,9.36c.3.86.54,1.56.69,2a3.63,3.63,0,0,1-.36,3.41,3.21,3.21,0,0,1-2.7,1.28,12.07,12.07,0,0,1-3.44-.77,13.6,13.6,0,0,0-3.42-.8l-.3,0c-.53.1-1.16.24-1.83.38A44.2,44.2,0,0,1,246.92,138.91Z" transform="translate(-52.42 -75.82)"/><path class="cls-1" d="M282.38,85.17c3.08,0,5.71,1.75,6.22,4.35.59,3-2,6.1-5.68,6.83l-.37.06c-3.1,10.8-7.4,28.36-10.06,28.36l-.14,0c-4-1-6.65-3.8-12.23-6.8.11,5.7,3.58,14.44,4.37,17,.33,1.08,0,1.44-.68,1.44-1.45,0-4.55-1.57-6.86-1.57a3.8,3.8,0,0,0-.77.07c-2.49.48-6.72,1.53-9.26,1.53-1.29,0-2.15-.27-2.12-1,.3-8.43,3.27-32.68,7.21-33.17h.1c2.13,0,9.49,7.36,17.3,11.32,0,0,4.54-10.61,8.2-18a5.11,5.11,0,0,1-2.51-3.38c-.59-3,1.95-6.1,5.68-6.82a8,8,0,0,1,1.6-.16m0-5a13.07,13.07,0,0,0-2.56.25c-6.43,1.25-10.74,6.94-9.63,12.69a9.74,9.74,0,0,0,1.38,3.42c-1.6,3.39-3.22,7-4.48,9.82-2.1-1.41-4.12-2.94-5.88-4.28-4.13-3.13-6.4-4.85-9.1-4.85a5.63,5.63,0,0,0-.71,0c-4.64.57-7.06,5.2-9.28,17.69a168.87,168.87,0,0,0-2.32,20.26,5.71,5.71,0,0,0,1.6,4.2,7.5,7.5,0,0,0,5.52,2,45.4,45.4,0,0,0,8.42-1.26l1.66-.34a15.59,15.59,0,0,1,2.61.68,13.8,13.8,0,0,0,4.2.89,5.75,5.75,0,0,0,4.71-2.3,6,6,0,0,0,.74-5.63c-.17-.54-.41-1.24-.72-2.12s-.66-1.89-1.05-3.08a17.75,17.75,0,0,0,3.65,1.35,5.61,5.61,0,0,0,1.35.17c4.66,0,6.69-4.85,8.68-10.7,1.51-4.44,3.11-10.21,4.51-15.31.32-1.14.63-2.27.93-3.35,4.87-2.11,7.85-7,6.9-11.84s-5.54-8.4-11.13-8.4Z" transform="translate(-52.42 -75.82)"/><path class="cls-2" d="M222.64,175.54a9.72,9.72,0,0,1-9.43-10V150.62c0-2.62,1-7.35,7.82-9.7,9.08-3.15,21.23-3.81,29.83-3.81,12.37,0,25.05,1.38,33.91,3.69,5.05,1.32,8.19,5.08,8.19,9.82v14.95a9.72,9.72,0,0,1-9.43,10Z" transform="translate(-52.42 -75.82)"/><path class="cls-1" d="M250.86,142c11.94,0,24.23,1.33,32.67,3.53,2.42.64,4.5,2.26,4.5,5.05v14.95a4.79,4.79,0,0,1-4.5,5H222.64a4.79,4.79,0,0,1-4.5-5V150.62c0-2.79,2.12-4.22,4.5-5.05,7.12-2.46,17.53-3.53,28.22-3.53m0-9.86c-9,0-21.72.71-31.44,4.08-7,2.41-11.14,7.78-11.14,14.36v14.95c0,8.22,6.44,14.9,14.36,14.9h60.89c7.92,0,14.36-6.68,14.36-14.9V150.62c0-7-4.66-12.71-11.87-14.59-9.25-2.41-22.39-3.85-35.16-3.85Z" transform="translate(-52.42 -75.82)"/><rect class="cls-2" x="318.5" y="146.18" width="35.81" height="52.5" rx="14.19"/><path class="cls-1" d="M392.54,227.38a8.8,8.8,0,0,1,8.8,8.8V260.3a8.8,8.8,0,0,1-8.8,8.81h-7.43a8.81,8.81,0,0,1-8.81-8.81V236.18a8.81,8.81,0,0,1,8.81-8.8h7.43m0-10.77h-7.43a19.6,19.6,0,0,0-19.58,19.57V260.3a19.6,19.6,0,0,0,19.58,19.58h7.43a19.6,19.6,0,0,0,19.57-19.58V236.18a19.59,19.59,0,0,0-19.57-19.57Z" transform="translate(-52.42 -75.82)"/><rect class="cls-2" x="44.13" y="146.18" width="35.81" height="52.5" rx="14.19"/><path class="cls-1" d="M118.17,227.38a8.8,8.8,0,0,1,8.81,8.8V260.3a8.8,8.8,0,0,1-8.81,8.81h-7.43a8.8,8.8,0,0,1-8.8-8.81V236.18a8.8,8.8,0,0,1,8.8-8.8h7.43m0-10.77h-7.43a19.59,19.59,0,0,0-19.57,19.57V260.3a19.6,19.6,0,0,0,19.57,19.58h7.43a19.6,19.6,0,0,0,19.58-19.58V236.18a19.6,19.6,0,0,0-19.58-19.57Z" transform="translate(-52.42 -75.82)"/><path class="cls-2" d="M249.55,352.85c-39.2,0-74.52-3.69-99.44-10.39-12.29-3.31-22.29-16.26-22.29-28.87V203.23c0-11.92,9-21.29,22.86-23.85,24.6-4.54,55-6.84,90.28-6.84a960.19,960.19,0,0,1,111.3,6.77c13.72,1.64,23.31,11.47,23.31,23.92V313.59c0,12.62-10.26,25.86-22.41,28.9C326.89,349.07,289.12,352.85,249.55,352.85Z" transform="translate(-52.42 -75.82)"/><path class="cls-1" d="M241,179.76a960.57,960.57,0,0,1,110.45,6.72c9.29,1.11,16.94,7.5,16.94,16.75V313.59c0,9.25-7.87,19.62-16.94,21.9-26.3,6.58-64.13,10.14-101.86,10.14-36,0-71.86-3.23-97.56-10.14-9-2.43-17-12.65-17-21.9V203.23c0-9.25,7.75-15,17-16.75,25.67-4.74,56.68-6.72,89-6.72m0-14.44v0c-35.74,0-66.56,2.34-91.59,7-17.21,3.18-28.76,15.61-28.76,30.95V313.59a37,37,0,0,0,8.1,22.34,37.44,37.44,0,0,0,19.53,13.5c25.51,6.86,61.49,10.63,101.31,10.63,40.14,0,78.54-3.85,105.37-10.57,15.36-3.85,27.87-19.95,27.87-35.9V203.23c0-16-12.48-29-29.68-31.09A968,968,0,0,0,241,165.32Z" transform="translate(-52.42 -75.82)"/><path class="cls-1" d="M338.59,204.22c-56-7-125.65-9.34-173.79,0-8,1.55-14.76,6.86-14.76,15.33v38.91c0,8.47,6.89,17.83,14.76,20.05,45.9,13,129,11.78,173.79,0,7.91-2.08,14.76-11.58,14.76-20.05V219.55C353.35,211.08,346.68,205.23,338.59,204.22Z" transform="translate(-52.42 -75.82)"/><rect class="cls-5" x="130.48" y="142.71" width="43.25" height="43.25" rx="9.38"/><rect class="cls-5" x="225.64" y="142.71" width="43.25" height="43.25" rx="9.38"/><path class="cls-1" d="M222.78,303.68c-5.73,0-9.67,5.35-7.26,10,6.12,11.95,19.93,20.28,36,20.28s29.86-8.33,36-20.28c2.41-4.69-1.53-10-7.26-10Z" transform="translate(-52.42 -75.82)"/></svg>