<svg xmlns="http://www.w3.org/2000/svg" viewBox="0 0 474.57 355.9"><defs><style>.cls-1{fill:#cd6799;}</style></defs><g id="Layer_2" data-name="Layer 2"><g id="Layer_1-2" data-name="Layer 1"><path class="cls-1" d="M408.64,204.59a98.24,98.24,0,0,0-43,10c-4.42-8.76-8.84-16.56-9.62-22.28-.86-6.67-1.9-10.75-.86-18.72s5.72-19.33,5.63-20.2-1-4.94-10.58-5-17.76,1.82-18.72,4.34a105.62,105.62,0,0,0-4,14.13c-1.64,8.67-19.07,39.61-29,55.82-3.21-6.33-6-11.88-6.59-16.3-.87-6.67-1.91-10.74-.87-18.72s5.72-19.33,5.64-20.2-1-4.94-10.58-5-17.77,1.82-18.72,4.33-2,8.41-4,14.13-25.14,57.38-31.21,70.73c-3.12,6.85-5.8,12.31-7.71,16h0a4.09,4.09,0,0,1-.35.69c-1.64,3.21-2.6,4.94-2.6,4.94v.09c-1.3,2.34-2.68,4.51-3.38,4.51-.52,0-1.47-6.24.18-14.74,3.46-17.94,11.7-45.85,11.61-46.81,0-.52,1.56-5.37-5.37-7.89-6.76-2.51-9.19,1.65-9.8,1.65s-1,1.47-1,1.47,7.54-31.37-14.39-31.37c-13.69,0-32.59,15-42,28.51-5.9,3.21-18.46,10.06-31.9,17.43-5.11,2.86-10.4,5.72-15.34,8.41-.35-.35-.7-.78-1-1.13C82.54,205,33.48,185,35.56,147c.78-13.87,5.55-50.28,94.22-94.48,73-36,131.07-26,141.12-3.91,14.39,31.56-31.12,90.15-106.53,98.65-28.78,3.2-43.86-7.89-47.67-12.05-4-4.34-4.6-4.6-6.07-3.73-2.43,1.3-.87,5.2,0,7.46,2.25,5.89,11.53,16.29,27.22,21.41,13.86,4.5,47.58,7,88.41-8.76,45.68-17.68,81.39-66.83,70.91-108C286.68,1.76,217.33-12,151.71,11.29,112.71,25.16,70.41,47,40,75.44,3.84,109.24-1.88,138.63.46,150.93c8.4,43.69,68.65,72.12,92.75,93.19-1.22.69-2.35,1.3-3.3,1.82-12,6-58,30-69.43,55.39-13,28.77,2.08,49.4,12.05,52.18,30.94,8.58,62.76-6.85,79.83-32.33s15-58.6,7.11-73.77a1.76,1.76,0,0,0-.35-.52c3.12-1.82,6.33-3.73,9.45-5.55,6.16-3.64,12.22-7,17.42-9.79-2.94,8.06-5.11,17.68-6.15,31.55-1.3,16.3,5.37,37.45,14.13,45.77,3.9,3.64,8.49,3.73,11.44,3.73,10.23,0,14.82-8.5,19.94-18.55,6.24-12.31,11.87-26.62,11.87-26.62s-7,38.66,12.05,38.66c6.94,0,14-9,17.08-13.6v.08s.17-.26.52-.86l1.12-1.83v-.17c2.78-4.85,9-15.86,18.29-34.15,12-23.58,23.49-53.05,23.49-53.05a150.46,150.46,0,0,0,4.6,19.16c2.08,7,6.41,14.73,9.88,22.19-2.77,3.9-4.51,6.06-4.51,6.06l.09.09c-2.25,3-4.68,6.16-7.37,9.28-9.45,11.26-20.72,24.18-22.28,27.91-1.82,4.42-1.38,7.63,2.08,10.23,2.52,1.9,7,2.16,11.62,1.9a53.1,53.1,0,0,0,17.42-4,58.46,58.46,0,0,0,15-7.89c9.27-6.85,14.91-16.65,14.39-29.56-.26-7.11-2.6-14.22-5.46-20.89.86-1.21,1.64-2.43,2.51-3.64a397.47,397.47,0,0,0,26-44.9,150.93,150.93,0,0,0,4.59,19.15c1.73,6.07,5.29,12.66,8.41,19.07-13.78,11.19-22.28,24.19-25.31,32.68-5.46,15.78-1.22,22.89,6.84,24.53,3.65.78,8.85-.95,12.66-2.6a57.74,57.74,0,0,0,16-8.23c9.27-6.85,18.2-16.38,17.68-29.3a55.39,55.39,0,0,0-4-17.34c11.7-4.85,26.79-7.54,46-5.28,41.26,4.85,49.41,30.6,47.85,41.43s-10.23,16.73-13.09,18.55-3.82,2.43-3.56,3.73c.35,1.9,1.74,1.82,4.17,1.47,3.38-.61,21.67-8.75,22.45-28.69C475.82,232.16,451.55,204.33,408.64,204.59ZM90.34,311.9c-13.69,14.91-32.76,20.55-41,15.78-8.84-5.12-5.37-27.13,11.45-42.91,10.22-9.62,23.4-18.55,32.15-24,2-1.21,5-2.95,8.5-5.11.61-.35,1-.52,1-.52h0l2.08-1.3C110.63,276.36,104.73,296.21,90.34,311.9ZM190,244.12c-4.77,11.61-14.74,41.34-20.81,39.7-5.2-1.39-8.4-23.93-1-46.2,3.73-11.19,11.62-24.53,16.21-29.74,7.46-8.32,15.69-11.09,17.69-7.71C204.59,204.59,193,236.84,190,244.12Zm82.26,39.35c-2,1-3.9,1.73-4.77,1.21-.61-.34.87-1.73.87-1.73s10.31-11.09,14.39-16.12c2.34-2.95,5.11-6.42,8.06-10.32v1.13C290.84,270.9,278,279.83,272.29,283.47ZM335.74,269c-1.47-1-1.21-4.5,3.73-15.34,1.9-4.25,6.41-11.35,14.13-18.2a24.59,24.59,0,0,1,1.38,8C354.9,260.15,342.93,266.39,335.74,269Z"/></g></g></svg>