<svg xmlns="http://www.w3.org/2000/svg" viewBox="0 0 634.38 297.13"><defs><style>.cls-1{fill:#ccc;}.cls-2{fill:#24fc2d;}.cls-3{fill:#2e6f95;}.cls-4{fill:#0091ad;}.cls-5{fill:#455e89;}.cls-15,.cls-6{fill:#1a1a1a;}.cls-7{fill:#b7094c;}.cls-13,.cls-8,.cls-9{fill:none;}.cls-8{stroke:#1a1a1a;stroke-width:26px;}.cls-10,.cls-13,.cls-8,.cls-9{stroke-miterlimit:10;}.cls-10,.cls-13,.cls-9{stroke:#fbff12;}.cls-13,.cls-9{stroke-linecap:round;}.cls-9{stroke-width:15.39px;}.cls-10,.cls-14{fill:#fbff12;}.cls-11{fill:#23001e;}.cls-12{fill:#ff0054;}.cls-13{stroke-width:16.4px;}.cls-15{opacity:0.91;}.cls-16{fill:#1780a1;}.cls-17{fill:#1982c4;}.cls-18{fill:#41ead4;}.cls-19{fill:#fff;}.cls-20{fill:#390099;}</style></defs><g id="Layer_2" data-name="Layer 2"><g id="Layer_2-2" data-name="Layer 2"><rect class="cls-1" x="100.33" y="10.06" width="53.19" height="25.76" rx="2.39" transform="translate(253.85 45.87) rotate(180)"/><rect class="cls-1" x="9.47" y="93.77" width="53.19" height="25.76" rx="2.39" transform="translate(72.14 213.3) rotate(180)"/><rect class="cls-1" x="73.73" y="43.15" width="53.19" height="25.76" rx="2.39" transform="translate(200.66 112.06) rotate(180)"/><rect class="cls-1" x="15.97" y="43.15" width="53.19" height="25.76" rx="2.39" transform="translate(85.14 112.06) rotate(180)"/><rect class="cls-1" x="109.09" y="143.26" width="53.19" height="25.76" rx="2.39"/><rect class="cls-1" x="309.38" y="3.73" width="53.19" height="25.76" rx="2.39"/><rect class="cls-1" x="575.12" y="45.44" width="53.19" height="25.76" rx="2.39"/><rect class="cls-1" x="218.28" y="46.22" width="53.19" height="25.76" rx="2.39"/><rect class="cls-1" x="203.11" y="270.76" width="53.19" height="25.76" rx="2.39"/><rect class="cls-1" x="296.83" y="197.2" width="53.19" height="25.76" rx="2.39"/><rect class="cls-1" x="564.68" y="176.77" width="53.19" height="25.76" rx="2.39"/><rect class="cls-1" x="519.36" y="271.37" width="53.19" height="25.76" rx="2.39"/><rect class="cls-1" x="430.44" y="240.68" width="53.19" height="25.76" rx="2.39"/><rect class="cls-1" x="488.2" y="240.68" width="53.19" height="25.76" rx="2.39"/><rect class="cls-1" x="507.65" y="177.45" width="53.19" height="25.76" rx="2.39" transform="translate(1068.49 380.66) rotate(-180)"/><rect class="cls-1" x="239.8" y="196.68" width="53.19" height="25.76" rx="2.39" transform="translate(532.79 419.12) rotate(-180)"/><rect class="cls-1" x="285.12" y="100.87" width="53.19" height="25.76" rx="2.39" transform="translate(623.43 227.51) rotate(-180)"/><rect class="cls-1" x="374.03" y="133.97" width="53.19" height="25.76" rx="2.39" transform="translate(801.26 293.7) rotate(-180)"/><rect class="cls-1" x="316.28" y="133.97" width="53.19" height="25.76" rx="2.39" transform="translate(685.75 293.7) rotate(-180)"/><rect class="cls-1" y="174.92" width="53.19" height="25.76" rx="2.39" transform="translate(53.19 375.6) rotate(180)"/><rect class="cls-1" x="45.32" y="270.72" width="53.19" height="25.76" rx="2.39" transform="translate(143.83 567.21) rotate(180)"/><rect class="cls-1" x="134.24" y="238.83" width="53.19" height="25.76" rx="2.39" transform="translate(321.66 503.43) rotate(180)"/><rect class="cls-1" x="76.48" y="237.63" width="53.19" height="25.76" rx="2.39" transform="translate(206.15 501.02) rotate(180)"/><path class="cls-2" d="M388.69,135.07l-21.13-71-25,34.49-16.24-.89L312.7,60.8l-29.3,68.66c-6.63-.36-26.35-7.83-25.83-17.34l14.76-.53c.52-9.5,13.69-67.41,20.32-67l14.9.75,15.41.9,14.39,17.7L354.9,47.34,380.24,49l11.23.91c6.63.36,10.69,59.06,10.17,68.57l14.49-.52C415.61,127.5,395.32,135.44,388.69,135.07Z"/><path class="cls-3" d="M135,130.81a.28.28,0,0,0-.22-.14L78.88,122a.34.34,0,0,0-.38.25l-2.92,10.69a.32.32,0,0,0,0,.27.34.34,0,0,0,.22.15L98,137.67a15.65,15.65,0,0,1-2.41-5.57c3.11,1.24,6.36,5.37,6.36,5.37l.91,1.15,12.77,2.5a6.79,6.79,0,0,1-.11-3.14c2,.82,3.51,3.23,3.87,3.88l12.7,2.49a.35.35,0,0,0,.4-.27l2.64-13A.29.29,0,0,0,135,130.81Z"/><path class="cls-4" d="M75.54,84.52a1,1,0,0,0,.07.93,1,1,0,0,0,.79.5l74.88,7.62a1,1,0,0,0,1.14-.89l1.72-12.55a1,1,0,0,0-.23-.8.68.68,0,0,0-.12-.12,1,1,0,0,0-.62-.26L134.55,77.7,134.09,79s-1.74,4.7-4.28,6.71c-.61-3.18,1.13-7.88,1.13-7.88l.12-.31-8.32-.56-.45.68a22.43,22.43,0,0,1-3,3.77,8.62,8.62,0,0,1,.28-4.67l-39-2.61a1,1,0,0,0-1,.65Z"/><path class="cls-5" d="M127.34,195.86a3.88,3.88,0,0,0,0,2.13c1.23,4.95,6.25,6.22,7.75,6.5,3.72.67,8.58-.26,11.06-3.86a6.1,6.1,0,0,0,1.21-3.83,2.63,2.63,0,0,0-1.14-2c-.49-.24-1.57-.41-3.92.16-.52.12-1,.26-1.55.4a24.65,24.65,0,0,1-7.09,1.14,28.4,28.4,0,0,1-3.58-.37A13.15,13.15,0,0,0,127.34,195.86Z"/><path class="cls-6" d="M63.51,79.69a13.92,13.92,0,0,0,1,12.46,14.11,14.11,0,0,0,2.69,3.24,13.92,13.92,0,0,0,7.88,3.45L150,106.46a13.93,13.93,0,0,0,15.29-12h0L167,81.89A14,14,0,0,0,154,66L81.37,61.15A14,14,0,0,0,67.44,69.9Zm17-5.61,39,2.61a8.62,8.62,0,0,0-.28,4.67,22.43,22.43,0,0,0,3-3.77l.45-.68,8.32.56-.12.31s-1.74,4.7-1.13,7.88c2.54-2,4.28-6.71,4.28-6.71l.46-1.25L153.17,79a1,1,0,0,1,.62.26.68.68,0,0,1,.12.12,1,1,0,0,1,.23.8l-1.72,12.55a1,1,0,0,1-1.14.89L76.4,86a1,1,0,0,1-.79-.5,1,1,0,0,1-.07-.93l3.92-9.79A1,1,0,0,1,80.5,74.08Z"/><path class="cls-6" d="M136.8,117.86l-55.92-8.69h0A13.29,13.29,0,0,0,66,118.8l-2.92,10.69A13.36,13.36,0,0,0,64.61,140a12.93,12.93,0,0,0,2.45,2.91,13.33,13.33,0,0,0,6.29,3.13l56.21,11a13.32,13.32,0,0,0,15.59-10.4l2.64-13a13.3,13.3,0,0,0-11-15.79Zm-4.35,26.22a.35.35,0,0,1-.4.27l-12.7-2.49c-.36-.65-1.82-3.06-3.87-3.88a6.79,6.79,0,0,0,.11,3.14l-12.77-2.5-.91-1.15s-3.25-4.13-6.36-5.37A15.65,15.65,0,0,0,98,137.67l-22.12-4.34a.34.34,0,0,1-.22-.15.32.32,0,0,1,0-.27l2.92-10.69a.34.34,0,0,1,.38-.25l55.93,8.7a.28.28,0,0,1,.22.14.29.29,0,0,1,.06.26Z"/><path class="cls-6" d="M180,83.37l9.53,6.74c-2.61,7.76-5.4,15.46-8.54,23.06-4.26,10.29,11.31,18.11,15.61,7.71,2.77-6.7,5.28-13.49,7.68-20.32l11.57,8.2q-4,17.46-9.16,34.66c-3.24,10.72,13.85,14.11,17.07,3.44,2.72-9,5.14-18.14,7.37-27.28L244.44,129c9,6.4,20.72-6.53,11.58-13q-10.36-7.35-20.74-14.69c1.51-7.31,2.92-14.64,4.12-22,1.8-11-15.26-14.54-17.07-3.44-.78,4.84-1.67,9.65-2.59,14.45l-9.82-7c2.49-8.28,4.79-16.63,6.73-25.09,2.51-10.93-14.56-14.38-17.07-3.44-1.39,6-3,12-4.63,17.93-1.11-.79-2.22-1.58-3.34-2.36C182.57,64,170.89,76.89,180,83.37Z"/><path class="cls-6" d="M27.08,48.23l4.69-1.64c-.64,1.63-1.17,3-1.35,3.52-2.67,7.35-4.82,15.06-4.91,22.94-.15,12.88,5,24.46,15.64,31.84,6.79,4.71,14-5.91,7.17-10.61C37.51,86.79,36.92,73.68,40,62c1.76-6.69,7.9-15.36,7.89-22.31,0-15.37-19.69-5.33-26.49-3C13.64,39.46,19.37,50.92,27.08,48.23Z"/><path class="cls-6" d="M144.77,16.73a36.46,36.46,0,0,0-17.85,5c-3,1.73-3.71,6.06-1.9,8.86a6.53,6.53,0,0,0,8.86,1.9,23.39,23.39,0,0,1,11.63-3c3.46,0,6.21-3.43,6-6.76A6.51,6.51,0,0,0,144.77,16.73Z"/><path class="cls-6" d="M168.44,10.44C162.29,5,153.76,14.51,159.92,20S174.61,15.93,168.44,10.44Z"/><path class="cls-6" d="M92.75,270.07c8-7.92,10.86-22.68,10.77-33.48-.16-18.63-31.32-43.9-2.36-54.2,10.29-3.66,4.13-19.46-6.17-15.8-13.81,4.92-24,16.51-24,31.72,0,8.2,3,14.66,7.33,21.39,5,7.74,9,11.88,7.89,21.74-.46,3.95-2.48,21.88-13.68,12.1-5-4.37-2-23.33-4.31-30.41-2-6.16-5.61-12-11.28-15.4a20.06,20.06,0,0,0-29,9c-4.52,9.95,10.93,16.94,15.44,7C50,209,53.8,243.38,53.65,241.43a94.94,94.94,0,0,0,1,10.91c1.26,6.58,4,12.67,8.87,17.33C71.92,277.66,84.37,278.35,92.75,270.07Z"/><path class="cls-6" d="M139.94,185.13l-1.8.47a16.58,16.58,0,0,1-4.26.79,18.45,18.45,0,0,1-2.29-.26c-2.67-.4-6.32-.95-9.75,1.25-4,2.52-5.63,7.65-4.27,13.06a18,18,0,0,0,5.54,9.11,20.76,20.76,0,0,0,10.2,4.85c8.43,1.53,16.73-1.64,21.15-8.06a16,16,0,0,0,2.95-10.43,12.54,12.54,0,0,0-6.7-10.17C146.8,183.81,142.69,184.47,139.94,185.13Zm.82,10.2c.51-.14,1-.28,1.55-.4,2.35-.57,3.43-.4,3.92-.16a2.63,2.63,0,0,1,1.14,2,6.1,6.1,0,0,1-1.21,3.83c-2.48,3.6-7.34,4.53-11.06,3.86-1.5-.28-6.52-1.55-7.75-6.5a3.88,3.88,0,0,1,0-2.13,13.15,13.15,0,0,1,2.75.24,28.4,28.4,0,0,0,3.58.37A24.65,24.65,0,0,0,140.76,195.33Z"/><path class="cls-7" d="M165.05,162.64c-3.39,4.25.88,9.22,5.37,9.62a32.79,32.79,0,0,0,7.46-.5c2.32-.34,5.1-.48,7.27-1.41a5,5,0,0,0,3-5.13c-.22-2.66-2.25-4.32-4.53-5.35a3.48,3.48,0,0,0-4.36,1.15c-2.75-.12-5.49-.25-8.24-.36C168.82,160.57,166.57,160.74,165.05,162.64Z"/><circle class="cls-8" cx="342.65" cy="74.31" r="61.31" transform="translate(-7.5 56.2) rotate(-9.27)"/><line class="cls-9" x1="257.56" y1="52.94" x2="257.56" y2="173.5"/><circle class="cls-10" cx="262.47" cy="48.49" r="23.02"/><circle class="cls-11" cx="215.93" cy="13" r="3.22" transform="translate(0.73 34.97) rotate(-9.27)"/><path class="cls-12" d="M235.34,129.73a51.78,51.78,0,0,0-41.62,82.59v40.14a10.53,10.53,0,1,0,21.06,0V229a51.78,51.78,0,1,0,20.56-99.31Z"/><ellipse class="cls-6" cx="121.19" cy="107.25" rx="10.23" ry="9.85"/><line class="cls-13" x1="177.9" y1="154.24" x2="179.16" y2="227.65"/><path class="cls-14" d="M179.69,177.09q3.23-8,6.43-16c.23-.56.56-1.2,1.14-1.22s1,.66,1.21,1.27c1.38,4.17.53,8.72,0,13.1a34.08,34.08,0,0,0-.3,5.35,25.61,25.61,0,0,0,3,.2c14.67,0,26.6-12.36,26.6-27.55s-11.93-27.55-26.6-27.55-26.6,12.36-26.6,27.55A27.64,27.64,0,0,0,179.69,177.09Z"/><path class="cls-6" d="M190,193.05a42.9,42.9,0,1,0-42.89-42.9A42.95,42.95,0,0,0,190,193.05Zm0-69.52a26.65,26.65,0,0,1,26.62,26.62c0,14.67-8.89,26.44-23.57,26.44-1,0,1,.12,0,0-.06-1.73-3.05-6.69,2.2-15.49C207.8,140,190,132.22,182.5,143c-6.1,8.8,9,8.8,5.9,14.2-4.74,8.25-8.68-5-13.18,2.1-3,4.7,5.36,9.67,3.22,14.81A26.6,26.6,0,0,1,190,123.53Z"/><path class="cls-6" d="M164.47,204.32a8.23,8.23,0,1,0,8.23-8.23A8.24,8.24,0,0,0,164.47,204.32Z"/><path class="cls-15" d="M127,236.94a9,9,0,1,0-9,9A9,9,0,0,0,127,236.94Z"/><path class="cls-6" d="M225.73,99a4.91,4.91,0,1,0-4.9,5.21A5.07,5.07,0,0,0,225.73,99Z"/><path class="cls-16" d="M543,199.08a257.59,257.59,0,0,1,65.11-6.91l-3.79-17.64a631.05,631.05,0,0,0-64.28,11.22Z"/><path class="cls-17" d="M537.84,175.7a643.65,643.65,0,0,1,64.34-11.28L599,149.77c-24.63-4.81-53.57,3.65-65.24,7.65Z"/><path class="cls-18" d="M556.54,260c31.82,14.82,56.33-4,63.83-10.93l-3-14.2a37.84,37.84,0,0,0-5.44-1.63l4.69-1.87-1.91-8.91a24.13,24.13,0,0,1-7-1.88q2.86-2.09,5.74-4.16l-3-13.89a246.81,246.81,0,0,0-65.11,6.61Z"/><path class="cls-19" d="M565.13,98.53l-2.61,1a1.55,1.55,0,0,1-1.12-2.88l3.29-1.28-.31-2.19-16,2.24,3.35,24,16-2.23Zm-5.67,8.57c.29,2-.57,3.81-1.9,4s-2.65-1.29-2.93-3.31.57-3.81,1.91-4S559.18,105.08,559.46,107.1Z"/><path class="cls-14" d="M610.53,264.34c5.39-.31,9.46-5.25,11-10.87s1-11.85.4-17.9c-2.8-28.56-7-58-20.49-83.67-1.54-2.91-3.28-5.87-5.84-7.7-12.51-9-6.12,13-5,18.49l6.66,33.88C598.36,202.46,609.9,264.38,610.53,264.34Z"/><path class="cls-6" d="M606.37,137.72c-12.31-3.22-25.56-3.29-37.77-1.95l-1.39-7,3-.42a10.38,10.38,0,0,0,2.36-.62,10.37,10.37,0,0,0,6.48-11.09l-3.61-25.9a10.37,10.37,0,0,0-11.71-8.84l-17.88,2.49A10.39,10.39,0,0,0,537,96.06l3.61,25.9a10.39,10.39,0,0,0,11.71,8.84L558,130l1.39,7.05a186.06,186.06,0,0,0-36,9.91,6.68,6.68,0,0,0-4,7.64L544.17,266a6.69,6.69,0,0,0,3.44,4.48c23.15,12.06,43.42,9.09,57.31,3.68,1.27-.5,2.49-1,3.65-1.54a78.52,78.52,0,0,0,24.09-16.94,6.69,6.69,0,0,0,1.57-5.88l-23-107A6.7,6.7,0,0,0,606.37,137.72Zm-54.63-18.27-3.35-24,16-2.24.31,2.19-3.29,1.28a1.55,1.55,0,0,0,1.12,2.88l2.61-1,2.61,18.69Zm61.62,97q-2.88,2.07-5.74,4.16a24.13,24.13,0,0,0,7,1.88l1.91,8.91-4.69,1.87a37.84,37.84,0,0,1,5.44,1.63l3,14.2c-7.5,6.92-32,25.75-63.83,10.93l-11.28-50.86a246.81,246.81,0,0,1,65.11-6.61Zm-5.22-24.25A257.59,257.59,0,0,0,543,199.08l-3-13.33a631.05,631.05,0,0,1,64.28-11.22Zm-6-27.75a643.65,643.65,0,0,0-64.34,11.28l-4.05-18.28c11.67-4,40.61-12.46,65.24-7.65Z"/><path class="cls-6" d="M556.54,103.79c-1.34.18-2.19,2-1.91,4s1.59,3.5,2.93,3.31,2.19-2,1.9-4S557.87,103.6,556.54,103.79Z"/><path class="cls-16" d="M523.35,105.28l-.64-2a8.79,8.79,0,0,0-11.07-5.66l-87.18,10.22C412.86,91,391.31,84,372.36,92.33c-21.92,9.61-32,36-22.59,59s34.87,33.8,56.79,24.19c.91-.4,1.79-.84,2.66-1.29l10.3,83.65a7,7,0,1,0,13.93-1.72l-11.36-92.29a44.94,44.94,0,0,0,2.77-3.69l92.83-43.8A8.8,8.8,0,0,0,523.35,105.28Z"/><path class="cls-20" d="M378.07,138.24a578.1,578.1,0,0,1,26.31-76.71L324.1,101.85l6.32,170.68v0c.05,1.32.15,2.63.27,3.93h0c38.37-43.17,68.37-96.79,87.28-158.79Q398.16,128.19,378.07,138.24Z"/><path class="cls-12" d="M333.82,181.69c-.91-7.45-7.33-12.79-14.33-11.93s-11.93,7.6-11,15.05,7.34,12.8,14.34,11.93S334.74,189.14,333.82,181.69Z"/><path class="cls-12" d="M386,90.19A11.81,11.81,0,1,0,396.25,77,11.8,11.8,0,0,0,386,90.19Z"/></g></g></svg>