<svg xmlns="http://www.w3.org/2000/svg" viewBox="0 0 634.38 298.09"><defs><style>.cls-1{fill:#ccc;}.cls-2{fill:#1780a1;}.cls-3{fill:#1982c4;}.cls-4{fill:#41ead4;}.cls-5{fill:#fff;}.cls-16,.cls-6{fill:#fbff12;}.cls-19,.cls-7{fill:#1a1a1a;}.cls-8{fill:#ff0054;}.cls-9{fill:#390099;}.cls-10{fill:#24fc2d;}.cls-11{fill:#2e6f95;}.cls-12{fill:#0091ad;}.cls-13{fill:#455e89;}.cls-14{fill:#b7094c;}.cls-15,.cls-18,.cls-21,.cls-22{fill:none;}.cls-15{stroke:#1a1a1a;stroke-width:28.84px;}.cls-15,.cls-16,.cls-18,.cls-21,.cls-22{stroke-miterlimit:10;}.cls-16,.cls-18,.cls-21,.cls-22{stroke:#fbff12;}.cls-16{stroke-width:1.11px;}.cls-17{fill:#23001e;}.cls-18,.cls-21,.cls-22{stroke-linecap:round;}.cls-18{stroke-width:18.19px;}.cls-19{opacity:0.91;}.cls-20{fill:#0c0f0a;}.cls-21{stroke-width:20px;}.cls-22{stroke-width:7px;}</style></defs><g id="Layer_2" data-name="Layer 2"><g id="Layer_2-2" data-name="Layer 2"><rect class="cls-1" x="480.85" y="11.02" width="53.19" height="25.76" rx="2.39"/><rect class="cls-1" x="571.71" y="94.73" width="53.19" height="25.76" rx="2.39"/><rect class="cls-1" x="507.45" y="44.11" width="53.19" height="25.76" rx="2.39"/><rect class="cls-1" x="565.21" y="44.11" width="53.19" height="25.76" rx="2.39"/><rect class="cls-1" x="472.09" y="144.22" width="53.19" height="25.76" rx="2.39" transform="translate(997.37 314.2) rotate(180)"/><rect class="cls-1" x="271.8" y="4.69" width="53.19" height="25.76" rx="2.39" transform="translate(596.8 35.14) rotate(180)"/><rect class="cls-1" x="6.07" y="46.4" width="53.19" height="25.76" rx="2.39" transform="translate(65.33 118.56) rotate(180)"/><rect class="cls-1" x="362.9" y="47.18" width="53.19" height="25.76" rx="2.39" transform="translate(779 120.12) rotate(180)"/><rect class="cls-1" x="378.07" y="271.72" width="53.19" height="25.76" rx="2.39" transform="translate(809.33 569.19) rotate(180)"/><rect class="cls-1" x="284.35" y="198.16" width="53.19" height="25.76" rx="2.39" transform="translate(621.9 422.08) rotate(180)"/><rect class="cls-1" x="16.5" y="177.73" width="53.19" height="25.76" rx="2.39" transform="translate(86.2 381.22) rotate(180)"/><rect class="cls-1" x="61.82" y="272.33" width="53.19" height="25.76" rx="2.39" transform="translate(176.84 570.42) rotate(180)"/><rect class="cls-1" x="150.74" y="241.64" width="53.19" height="25.76" rx="2.39" transform="translate(354.67 509.05) rotate(180)"/><rect class="cls-1" x="92.98" y="241.64" width="53.19" height="25.76" rx="2.39" transform="translate(239.16 509.05) rotate(180)"/><rect class="cls-1" x="73.53" y="178.41" width="53.19" height="25.76" rx="2.39"/><rect class="cls-1" x="341.38" y="197.64" width="53.19" height="25.76" rx="2.39"/><rect class="cls-1" x="296.07" y="101.83" width="53.19" height="25.76" rx="2.39"/><rect class="cls-1" x="207.15" y="134.93" width="53.19" height="25.76" rx="2.39"/><rect class="cls-1" x="264.91" y="134.93" width="53.19" height="25.76" rx="2.39"/><rect class="cls-1" x="581.18" y="175.88" width="53.19" height="25.76" rx="2.39"/><rect class="cls-1" x="535.86" y="271.68" width="53.19" height="25.76" rx="2.39"/><rect class="cls-1" x="446.95" y="239.79" width="53.19" height="25.76" rx="2.39"/><rect class="cls-1" x="504.7" y="238.59" width="53.19" height="25.76" rx="2.39"/><path class="cls-2" d="M91.35,200a257.67,257.67,0,0,0-65.12-6.91L30,175.49A630.57,630.57,0,0,1,94.3,186.71Z"/><path class="cls-3" d="M96.53,176.66A643.46,643.46,0,0,0,32.2,165.38l3.15-14.65c24.63-4.81,53.57,3.65,65.24,7.65Z"/><path class="cls-4" d="M77.83,261C46,275.78,21.5,257,14,250l3.06-14.2a38.1,38.1,0,0,1,5.43-1.63l-4.68-1.87,1.91-8.91a24.22,24.22,0,0,0,7-1.88L21,217.38l3-13.89a246.86,246.86,0,0,1,65.11,6.61Z"/><path class="cls-5" d="M69.25,99.49l2.61,1A1.55,1.55,0,0,0,73,97.63l-3.29-1.28.3-2.19L86,96.4l-3.35,24-16-2.24Zm5.66,8.57c-.28,2,.57,3.81,1.91,4s2.65-1.29,2.93-3.31-.58-3.81-1.91-4S75.19,106,74.91,108.06Z"/><path class="cls-6" d="M23.85,265.3c-5.39-.31-9.47-5.25-11-10.87s-1-11.85-.39-17.9c2.8-28.56,7-58,20.49-83.67,1.54-2.91,3.28-5.87,5.84-7.7,12.51-9,6.12,13,5,18.49q-3.35,16.93-6.67,33.88C36,203.42,24.47,265.34,23.85,265.3Z"/><path class="cls-7" d="M28,138.68c12.31-3.22,25.55-3.29,37.77-2l1.39-7-3-.42a10.43,10.43,0,0,1-2.35-.62,10.39,10.39,0,0,1-6.49-11.09l3.62-25.9a10.37,10.37,0,0,1,11.71-8.84L88.5,85.31A10.39,10.39,0,0,1,97.34,97l-3.62,25.9A10.38,10.38,0,0,1,82,131.76L76.36,131,75,138a185.83,185.83,0,0,1,36,9.91,6.68,6.68,0,0,1,4,7.64L90.2,267a6.63,6.63,0,0,1-3.44,4.48c-23.15,12.06-43.41,9.09-57.3,3.68-1.27-.5-2.49-1-3.65-1.54a78.65,78.65,0,0,1-24.1-16.94,6.71,6.71,0,0,1-1.56-5.88l23-107A6.7,6.7,0,0,1,28,138.68Zm54.63-18.26L86,96.4,70,94.16l-.3,2.19L73,97.63a1.55,1.55,0,0,1-1.12,2.88l-2.61-1-2.61,18.69ZM21,217.38l5.74,4.16a24.22,24.22,0,0,1-7,1.88l-1.91,8.91,4.68,1.87a38.1,38.1,0,0,0-5.43,1.63L14,250C21.5,257,46,275.78,77.83,261L89.12,210.1A246.86,246.86,0,0,0,24,203.49Zm5.21-24.25A257.67,257.67,0,0,1,91.35,200l3-13.33A630.57,630.57,0,0,0,30,175.49Zm6-27.75a643.46,643.46,0,0,1,64.33,11.28l4.06-18.28c-11.67-4-40.61-12.46-65.24-7.65Z"/><path class="cls-7" d="M77.84,104.75c1.33.18,2.19,2,1.91,4s-1.6,3.5-2.93,3.31-2.19-2-1.91-4S76.5,104.56,77.84,104.75Z"/><path class="cls-8" d="M99.42,116.41l.34-1.77a7.63,7.63,0,0,1,8.92-6l76-.44c8.18-15.71,26-24,43.11-18.85,19.84,5.94,31.33,27.55,25.64,48.27S227,170.3,207.17,164.37c-.83-.25-1.63-.53-2.42-.83v72.94a6.08,6.08,0,0,1-12.15,0V156a37.8,37.8,0,0,1-2.78-2.88l-84.36-27.8A7.62,7.62,0,0,1,99.42,116.41Z"/><path class="cls-9" d="M226.7,140.81a499.55,499.55,0,0,0-22.77-66.39l69.48,34.9L267.94,257v0c0,1.14-.12,2.28-.23,3.4h0c-33.2-37.36-59.17-83.77-75.53-137.42Q209.32,132.11,226.7,140.81Z"/><path class="cls-8" d="M265,178.41c.8-6.45,6.35-11.07,12.41-10.33s10.32,6.58,9.53,13-6.35,11.07-12.41,10.33S264.2,184.86,265,178.41Z"/><path class="cls-8" d="M219.86,99.22A10.22,10.22,0,1,1,211,87.83,10.22,10.22,0,0,1,219.86,99.22Z"/><path class="cls-10" d="M176.52,130.9l47.24-79.41L275.05,87l34.21-2.4,30.15-41.5,59,72.4c14-1,55.78-10.89,55.05-21.22L422.44,95c-.73-10.34-26.21-72.42-40.2-71.44l-31.4,2.14L318.35,28l-31,20.6L251.07,32.08l-53.43,4.1-23.67,2c-14,1-24.81,65.46-24.08,75.8,0,0-11.28,78.73,3.75,82C179.43,201.45,162.54,131.88,176.52,130.9Z"/><path class="cls-11" d="M486.54,145.08a.32.32,0,0,1,.25-.15l62-9.65a.38.38,0,0,1,.42.27l3.24,11.86a.31.31,0,0,1,0,.3.35.35,0,0,1-.25.17l-24.53,4.81a17.71,17.71,0,0,0,2.68-6.17c-3.46,1.37-7.06,5.95-7.06,5.95l-1,1.28-14.16,2.77a7.6,7.6,0,0,0,.12-3.49c-2.27.91-3.89,3.58-4.3,4.31l-14.08,2.76a.37.37,0,0,1-.44-.3l-2.93-14.43A.36.36,0,0,1,486.54,145.08Z"/><path class="cls-12" d="M552.53,93.74a1.15,1.15,0,0,1-1,1.58l-83.05,8.46a1.15,1.15,0,0,1-1.27-1l-1.9-13.91a1.16,1.16,0,0,1,.25-.89.62.62,0,0,1,.14-.14,1.07,1.07,0,0,1,.68-.29l20.65-1.38.52,1.39s1.93,5.21,4.74,7.44c.68-3.53-1.25-8.74-1.25-8.74l-.13-.35,9.22-.62.51.76a24.9,24.9,0,0,0,3.37,4.18,9.51,9.51,0,0,0-.32-5.18L547,82.16a1.16,1.16,0,0,1,1.16.72Z"/><path class="cls-13" d="M495.07,217.23a4.31,4.31,0,0,1,0,2.37c-1.37,5.49-6.93,6.89-8.61,7.2-4.12.74-9.51-.29-12.25-4.28a6.7,6.7,0,0,1-1.35-4.24,2.89,2.89,0,0,1,1.26-2.25c.55-.27,1.75-.46,4.36.17l1.71.44a27.53,27.53,0,0,0,7.87,1.27,30.54,30.54,0,0,0,4-.41A14.93,14.93,0,0,1,495.07,217.23Z"/><path class="cls-7" d="M565.87,88.39a15.44,15.44,0,0,1-1.12,13.82,15.78,15.78,0,0,1-3,3.59,15.38,15.38,0,0,1-8.73,3.82L470,118.08a15.47,15.47,0,0,1-17-13.35h0l-1.9-13.91a15.53,15.53,0,0,1,14.35-17.6l80.6-5.4a15.49,15.49,0,0,1,15.45,9.71ZM547,82.16l-43.29,2.9a9.51,9.51,0,0,1,.32,5.18,24.9,24.9,0,0,1-3.37-4.18l-.51-.76-9.22.62.13.35S493,91.48,492.33,95c-2.81-2.23-4.74-7.44-4.74-7.44l-.52-1.39-20.65,1.38a1.07,1.07,0,0,0-.68.29.62.62,0,0,0-.14.14,1.16,1.16,0,0,0-.25.89l1.9,13.91a1.15,1.15,0,0,0,1.27,1l83.05-8.46a1.15,1.15,0,0,0,1-1.58l-4.35-10.86A1.16,1.16,0,0,0,547,82.16Z"/><path class="cls-7" d="M484.58,130.72l62-9.64h0a14.73,14.73,0,0,1,16.49,10.68l3.25,11.86A14.75,14.75,0,0,1,555,162L492.61,174.2a14.78,14.78,0,0,1-17.29-11.54l-2.92-14.43a14.76,14.76,0,0,1,12.18-17.51Zm4.83,29.08a.37.37,0,0,0,.44.3l14.08-2.76c.41-.73,2-3.4,4.3-4.31a7.6,7.6,0,0,1-.12,3.49l14.16-2.77,1-1.28s3.6-4.58,7.06-5.95a17.71,17.71,0,0,1-2.68,6.17l24.53-4.81a.35.35,0,0,0,.25-.17.31.31,0,0,0,0-.3l-3.24-11.86a.38.38,0,0,0-.42-.27l-62,9.65a.32.32,0,0,0-.25.15.36.36,0,0,0-.06.29Z"/><path class="cls-7" d="M606.28,53.49l-5.21-1.82c.71,1.82,1.3,3.35,1.5,3.9,3,8.16,5.35,16.71,5.45,25.45.16,14.29-5.54,27.13-17.36,35.32-7.52,5.21-15.47-6.56-7.95-11.77,12-8.32,12.64-22.85,9.25-35.78-2-7.42-8.77-17-8.76-24.75,0-17,21.85-5.91,29.39-3.28C621.18,43.76,614.82,56.47,606.28,53.49Z"/><path class="cls-7" d="M439.34,33.32a67.92,67.92,0,0,1,33.1-10.06c6.45-.31,11.94,5.78,11.91,12,0,6.75-5.53,11.6-12,11.91a43.74,43.74,0,0,0-21.29,7c-5.47,3.43-13.21.89-16.27-4.55C431.49,43.74,433.85,36.75,439.34,33.32Z"/><path class="cls-7" d="M395.82,47.29c4.14-14.81,27.16-8.4,23,6.44S391.67,62.12,395.82,47.29Z"/><path class="cls-7" d="M555,277.33c-9.27-5-15.69-17.55-18.43-27.27-4.72-16.8,16.69-47.65-12-49.35-10.21-.6-8.8-16.41,1.41-15.81,13.7.81,25.92,8.56,29.9,22.23,2.15,7.37,1.14,14-1,21.15-2.45,8.26-5,13-1.41,21.6,1.45,3.43,7.94,19,15.46,7.3,3.36-5.24-4.33-21.48-4.07-28.46.23-6.07,1.9-12.24,6.11-16.79a18.78,18.78,0,0,1,28.42.46c6.66,7.77-5.4,18.09-12,10.34-9.83-11.47-4.26,20.43-4.64,18.64a90.94,90.94,0,0,1,1.93,10.08c.59,6.25-.27,12.43-3.44,17.89C575.72,278.72,564.71,282.59,555,277.33Z"/><path class="cls-7" d="M481.11,205.33c.66.16,1.32.34,2,.52a18.48,18.48,0,0,0,4.74.88,21.5,21.5,0,0,0,2.54-.29c2.95-.44,7-1.05,10.81,1.38,4.37,2.8,6.23,8.49,4.73,14.49a19.93,19.93,0,0,1-6.15,10.1,23,23,0,0,1-11.31,5.39c-9.35,1.69-18.56-1.82-23.45-9a17.84,17.84,0,0,1-3.28-11.57A13.93,13.93,0,0,1,469.16,206C473.49,203.86,478.05,204.59,481.11,205.33Zm-.92,11.31-1.71-.44c-2.61-.63-3.81-.44-4.36-.17a2.89,2.89,0,0,0-1.26,2.25,6.7,6.7,0,0,0,1.35,4.24c2.74,4,8.13,5,12.25,4.28,1.68-.31,7.24-1.71,8.61-7.2a4.31,4.31,0,0,0,0-2.37,14.93,14.93,0,0,0-3.05.27,30.54,30.54,0,0,1-4,.41A27.53,27.53,0,0,1,480.19,216.64Z"/><path class="cls-14" d="M453.25,180.39c3.76,4.71-1,10.23-5.95,10.67a36.52,36.52,0,0,1-8.28-.56c-2.58-.38-5.66-.54-8.06-1.56a5.55,5.55,0,0,1-3.38-5.7c.24-2.94,2.49-4.79,5-5.93a3.86,3.86,0,0,1,4.83,1.28c3.05-.13,6.1-.28,9.15-.4C449.07,178.09,451.57,178.27,453.25,180.39Z"/><circle class="cls-15" cx="256.27" cy="82.42" r="68" transform="translate(133.63 322.06) rotate(-80.73)"/><circle class="cls-16" cx="345.21" cy="67.78" r="25.54"/><circle class="cls-17" cx="396.81" cy="14.42" r="3.57" transform="translate(318.63 403.72) rotate(-80.73)"/><path class="cls-8" d="M350.64,104.55a59.63,59.63,0,0,1,47.93,95.12V245.9a12.13,12.13,0,1,1-24.25,0v-27a59.64,59.64,0,1,1-23.68-114.38Z"/><ellipse class="cls-7" cx="501.89" cy="118.95" rx="11.35" ry="10.92"/><line class="cls-18" x1="439" y1="171.07" x2="437.6" y2="252.49"/><path class="cls-6" d="M442.05,196.05l-8-19.81c-.28-.68-.7-1.48-1.42-1.51s-1.25.83-1.5,1.58c-1.71,5.18-.65,10.83,0,16.26a43.27,43.27,0,0,1,.38,6.65,31.77,31.77,0,0,1-3.8.24c-18.2,0-33-15.34-33-34.2s14.82-34.2,33-34.2,33,15.34,33,34.2A34.33,34.33,0,0,1,442.05,196.05Z"/><path class="cls-7" d="M425.63,214.11a47.58,47.58,0,1,1,47.58-47.58A47.63,47.63,0,0,1,425.63,214.11Zm0-77.1a29.55,29.55,0,0,0-29.52,29.52c0,16.28,9.86,29.33,26.14,29.33,1.15,0-1.11.13,0,0,.06-1.92,3.38-7.43-2.44-17.19-14-23.42,5.8-32,14.08-20.07,6.77,9.76-10,9.76-6.54,15.75,5.26,9.16,9.63-5.55,14.62,2.33,3.31,5.21-6,10.73-3.57,16.42A29.49,29.49,0,0,0,425.63,137Z"/><path class="cls-7" d="M453.89,226.61a9.13,9.13,0,1,1-9.13-9.13A9.13,9.13,0,0,1,453.89,226.61Z"/><path class="cls-19" d="M495.48,262.8a10,10,0,1,1,9.95,9.95A10,10,0,0,1,495.48,262.8Z"/><path class="cls-7" d="M386,109.8a5.44,5.44,0,1,1,5.43,5.78A5.61,5.61,0,0,1,386,109.8Z"/><path class="cls-4" d="M311.5,253.6a14.89,14.89,0,0,1-14.58-10.7c-2-6.56-3.9-13.48-5.82-21l-7.32,5.18a15,15,0,0,1-8.69,2.83h0a16,16,0,0,1-14.94-10.86c-1.75-5.47.23-11,5.16-14.53l18.75-13.28c-1.48-7.33-2.65-13.67-3.63-19.71a14.2,14.2,0,0,1,3.12-11.68,15.72,15.72,0,0,1,11.89-5.39,13.49,13.49,0,0,1,11.42,5.87c-.95-3.61-1.8-7.08-2.58-10.45a13.66,13.66,0,0,1,2.48-11.78,15.3,15.3,0,0,1,11.93-5.53,14.11,14.11,0,0,1,14.16,11.25c.81,3.55,1.74,7.3,2.81,11.33a14.71,14.71,0,0,1,5.66-1.14,16,16,0,0,1,14.94,10.86c1.74,5.47-.24,11-5.16,14.53l-6.61,4.68c2.51,7.27,5,13.8,7.48,19.88a14.44,14.44,0,0,1-1.28,13.77,15.76,15.76,0,0,1-12.9,7,13.08,13.08,0,0,1-12.3-8.52c-1.88-4.55-3.73-9.31-5.69-14.67l-3.16,2.25c2.58,10.95,5.48,21.79,8.65,32.28a13,13,0,0,1-1.79,11.8A14.86,14.86,0,0,1,311.5,253.6Zm-1.25-80.88,0,0c0-.12-.08-.25-.11-.37C310.2,172.45,310.22,172.59,310.25,172.72Z"/><path class="cls-20" d="M318.69,138.1a8.66,8.66,0,0,1,8.8,7c1.44,6.31,3.09,12.54,4.84,18.74l3.48-2.47a9.41,9.41,0,0,1,5.51-1.81c7.79,0,14.34,9.91,6.6,15.4L338,182c2.72,8.11,5.65,16.16,8.93,24.1,3,7.17-3.28,13.19-9.11,13.19a7.59,7.59,0,0,1-7.21-5.12c-2.9-7-5.53-14.11-8-21.24l-12.1,8.56q4.19,18.26,9.59,36.23c2,6.48-3.19,10.39-8.53,10.39a9.41,9.41,0,0,1-9.32-6.79c-2.85-9.45-5.37-19-7.7-28.52l-13.88,9.84a9.43,9.43,0,0,1-5.51,1.81c-7.79,0-14.34-9.91-6.6-15.4l21.68-15.35c-1.58-7.64-3.06-15.3-4.31-23C284.78,164,290.25,160,295.44,160a8,8,0,0,1,8.26,7.09c.82,5,1.75,10.08,2.71,15.1l10.27-7.27c-2.6-8.67-5-17.39-7-26.23-1.51-6.59,3.79-10.58,9.05-10.58m0-11a20.82,20.82,0,0,0-16.23,7.6,18.8,18.8,0,0,0-3.89,14.52,21.33,21.33,0,0,0-19.21,7.09A19.62,19.62,0,0,0,275,172.44c.84,5.13,1.8,10.46,3,16.41l-5.36,3.79-10.48,7.42c-6.95,4.93-9.72,12.85-7.23,20.68a21.63,21.63,0,0,0,20.19,14.7A20.48,20.48,0,0,0,287,231.6l.84-.6c1.27,4.69,2.55,9.16,3.85,13.49a20.87,20.87,0,0,0,36.26,6.71,18.62,18.62,0,0,0,2.65-16.67q-1-3.32-2-6.67a18.35,18.35,0,0,0,9.19,2.42,21.35,21.35,0,0,0,17.49-9.46,19.91,19.91,0,0,0,1.79-18.93c-2-4.87-4-10.06-6-15.69l3.22-2.28c7-4.93,9.73-12.85,7.23-20.68a21.62,21.62,0,0,0-20.18-14.7c-.56,0-1.12,0-1.67.07q-.78-3.09-1.44-6a19.68,19.68,0,0,0-19.52-15.52Z"/><line class="cls-21" x1="335.81" y1="66.07" x2="335.81" y2="199.78"/><line class="cls-22" x1="355.64" y1="48.72" x2="355.64" y2="142.43"/></g></g></svg>