<svg xmlns="http://www.w3.org/2000/svg" xmlns:xlink="http://www.w3.org/1999/xlink" viewBox="0 0 192.31 192.38"><defs><style>.cls-1{fill:#24fc2d;}.cls-2{fill:url(#New_Gradient_Swatch);}.cls-3{fill:#fbff12;}.cls-4{fill:#390099;}.cls-5{fill:#ed174c;}.cls-6{fill:#1a1a1a;}.cls-7{fill:#0c0f0a;}.cls-8{fill:#fff;}.cls-9{fill:#41ead4;}.cls-10{fill:#ff0054;}</style><linearGradient id="New_Gradient_Swatch" x1="58.62" y1="100.53" x2="192.31" y2="100.53" gradientUnits="userSpaceOnUse"><stop offset="0.13" stop-color="#ff206e"/><stop offset="0.95" stop-color="#fbff12"/></linearGradient></defs><g id="Layer_2" data-name="Layer 2"><g id="Vapor"><path class="cls-1" d="M99.22,73.06a49.61,49.61,0,1,0-87.51,32v54.38c0,3,3.17,5.39,7.08,5.39s7.07-2.42,7.07-5.39V116.63c1.28.7,2.61,1.34,4,1.93V183c0,3.55,3.77,6.43,8.42,6.43s8.43-2.88,8.43-6.43V122.58q1.45.09,2.94.09a49.51,49.51,0,0,0,38.64-18.51v84.48c0,2.07,2.2,3.74,4.91,3.74s4.9-1.67,4.9-3.74V83.71A49.79,49.79,0,0,0,99.22,73.06Z"/><path class="cls-2" d="M58.62,58.36A44.82,44.82,0,0,1,138.18,30a39.41,39.41,0,0,1,14.11-2.6c22.11,0,40,18.17,40,40.59A40.63,40.63,0,0,1,169,104.93V153a5.8,5.8,0,0,1-11.6,0V108.28c-.89.12-1.79.21-2.69.26v70.29a8.71,8.71,0,0,1-17.42,0V105.64a40.16,40.16,0,0,1-12.26-8,44.92,44.92,0,0,1-34.63,3.55v31.62a6.39,6.39,0,1,1-12.77,0V95A44.75,44.75,0,0,1,58.62,58.36Z"/><path class="cls-3" d="M73.93,181.22a5.19,5.19,0,0,1-5.18-5.08L66.1,46.48a5.18,5.18,0,1,1,10.36-.21l2.65,129.66A5.18,5.18,0,0,1,74,181.22Z"/><path class="cls-4" d="M91,174.16a22.83,22.83,0,1,1,28.6,15.36A23,23,0,0,1,91,174.16Zm32.16-9.88a10.81,10.81,0,1,0-7.12,13.62A10.88,10.88,0,0,0,123.19,164.28Z"/><circle class="cls-5" cx="112.86" cy="167.45" r="8.56" transform="translate(-87.84 189.8) rotate(-62.38)"/><path class="cls-1" d="M157.34,61.68c-17.42,0-31.6-13.83-31.6-30.84S139.92,0,157.34,0,189,13.84,189,30.84,174.77,61.68,157.34,61.68Zm0-51.71c-11.92,0-21.63,9.36-21.63,20.87s9.71,20.87,21.63,20.87S179,42.35,179,30.84,169.27,10,157.34,10Z"/><ellipse class="cls-4" cx="37.21" cy="27.81" rx="22.94" ry="22.48" transform="translate(-6.52 12.15) rotate(-17.07)"/><path class="cls-3" d="M23.18,51.18c-5.17-16.81,4.59-34.77,21.74-40S80.23,15.26,85.4,32.07s-4.59,34.77-21.75,40S28.34,68,23.18,51.18ZM69,37.1a15.42,15.42,0,1,0-10.3,19A15.27,15.27,0,0,0,69,37.1Z"/><path class="cls-6" d="M165.59,163.64a9.4,9.4,0,1,0,6.71,11.48A9.41,9.41,0,0,0,165.59,163.64Z"/><path class="cls-7" d="M149.29,168.9a16.21,16.21,0,0,1-3.54,6.6,16.89,16.89,0,0,1-11.37,5.66h0a16.89,16.89,0,0,1-12.13-3.74,16,16,0,0,1-1.88-23.07,16.88,16.88,0,0,1,11.36-5.65,16.53,16.53,0,0,1,18,14.86A15.9,15.9,0,0,1,149.29,168.9Zm-24.07-5.73a7,7,0,0,0-.21,2.42,7.31,7.31,0,0,0,2.73,5.11,8.25,8.25,0,0,0,5.94,1.81h0a8.25,8.25,0,0,0,5.56-2.75,7.33,7.33,0,0,0,1.86-5.49,7.87,7.87,0,0,0-8.67-6.93,8.29,8.29,0,0,0-5.56,2.75A7.52,7.52,0,0,0,125.22,163.17Z"/><path class="cls-6" d="M119.86,116a28.08,28.08,0,1,1,39.65-2.37A28.08,28.08,0,0,1,119.86,116Z"/><path class="cls-8" d="M158.09,173.15a5.14,5.14,0,1,1,5.54,4.71A5.14,5.14,0,0,1,158.09,173.15Z"/><ellipse class="cls-9" cx="148.45" cy="42.27" rx="24.29" ry="23.67" transform="translate(-0.32 83.4) rotate(-31.35)"/><ellipse class="cls-10" cx="31.7" cy="155.55" rx="17.51" ry="17.05" transform="translate(-76.3 39.2) rotate(-31.35)"/><path class="cls-4" d="M121.91,79.25a22.07,22.07,0,1,0,18.23-25.34A22.07,22.07,0,0,0,121.91,79.25Z"/><ellipse class="cls-8" cx="133.05" cy="164.93" rx="10.57" ry="10.17" transform="translate(-13.01 11.4) rotate(-4.68)"/><path class="cls-6" d="M189.77,167a5.91,5.91,0,1,1-6.37-5.33A5.87,5.87,0,0,1,189.77,167Z"/><path class="cls-4" d="M185.37,91.1a10.07,10.07,0,1,1,4-13.66A10.07,10.07,0,0,1,185.37,91.1Z"/><path class="cls-3" d="M153.8,46.57a7.81,7.81,0,1,1-1.09-11A7.8,7.8,0,0,1,153.8,46.57Z"/><path class="cls-8" d="M186.92,167.2a3.06,3.06,0,1,1-3.29-2.75A3,3,0,0,1,186.92,167.2Z"/><rect class="cls-8" x="42.65" y="50.33" width="64.5" height="53.49"/><path d="M32.27,40.8V151.93a3.13,3.13,0,0,0,3.14,3.14H154.92a3.14,3.14,0,0,0,3.15-3.14V40.8a3.15,3.15,0,0,0-3.15-3.14H35.41A3.14,3.14,0,0,0,32.27,40.8ZM47.34,91.52,67.49,75.4,47.34,59.28l5.24-6.55L80.91,75.4,52.58,98.07Zm52,4.85H74.2V88H99.36Z"/></g></g></svg>